<svg width="12" height="7" viewBox="0 0 12 7" fill="none" xmlns="http://www.w3.org/2000/svg">
<path d="M5.28003 6.78C5.42054 6.92069 5.61118 6.99982 5.81003 7L6.19003 7C6.38844 6.9977 6.5783 6.91888 6.72003 6.78L11.85 1.64C11.9447 1.54612 11.9979 1.41832 11.9979 1.285C11.9979 1.15168 11.9447 1.02388 11.85 0.93L11.14 0.22C11.0479 0.125936 10.9217 0.0729284 10.79 0.0729284C10.6583 0.0729284 10.5322 0.125936 10.44 0.22L6.00003 4.67L1.56003 0.22C1.46614 0.125343 1.33834 0.0721005 1.20503 0.0721005C1.07171 0.0721005 0.943909 0.125343 0.850025 0.22L0.150025 0.93C0.0553694 1.02388 0.00212676 1.15168 0.00212676 1.285C0.00212676 1.41832 0.0553694 1.54612 0.150025 1.64L5.28003 6.78Z" fill="white"/>
</svg>
