<svg width="10" height="16" viewBox="0 0 10 16" fill="none" xmlns="http://www.w3.org/2000/svg">
<path d="M0.959349 8.96013C0.771759 8.77277 0.666249 8.51859 0.666016 8.25346V7.74679C0.669088 7.48224 0.77417 7.22909 0.959349 7.04013L7.81268 0.200129C7.93786 0.0739201 8.10826 0.00292969 8.28602 0.00292969C8.46377 0.00292969 8.63417 0.0739201 8.75935 0.200129L9.70602 1.1468C9.83143 1.26968 9.90211 1.43788 9.90211 1.61346C9.90211 1.78905 9.83143 1.95724 9.70602 2.08013L3.77268 8.00013L9.70602 13.9201C9.83222 14.0453 9.90321 14.2157 9.90321 14.3935C9.90321 14.5712 9.83222 14.7416 9.70602 14.8668L8.75935 15.8001C8.63417 15.9263 8.46377 15.9973 8.28602 15.9973C8.10826 15.9973 7.93786 15.9263 7.81268 15.8001L0.959349 8.96013Z" fill="#0D0D0D"/>
</svg>
