<svg width="10" height="16" viewBox="0 0 10 16" fill="none" xmlns="http://www.w3.org/2000/svg">
<path d="M9.04065 8.96013C9.22824 8.77277 9.33375 8.51859 9.33398 8.25346V7.74679C9.33091 7.48224 9.22583 7.22909 9.04065 7.04013L2.18732 0.200129C2.06214 0.0739201 1.89174 0.00292969 1.71398 0.00292969C1.53623 0.00292969 1.36583 0.0739201 1.24065 0.200129L0.293985 1.1468C0.168566 1.26968 0.0978895 1.43788 0.0978895 1.61346C0.0978895 1.78905 0.168566 1.95724 0.293985 2.08013L6.22732 8.00013L0.293985 13.9201C0.167776 14.0453 0.0967858 14.2157 0.0967858 14.3935C0.0967858 14.5712 0.167776 14.7416 0.293985 14.8668L1.24065 15.8001C1.36583 15.9263 1.53623 15.9973 1.71398 15.9973C1.89174 15.9973 2.06214 15.9263 2.18732 15.8001L9.04065 8.96013Z" fill="#0D0D0D"/>
</svg>
