<svg width="322" height="48" viewBox="0 0 322 48" fill="none" xmlns="http://www.w3.org/2000/svg">
<path d="M63.672 12.24C63.672 11.5467 63.7893 10.8693 64.024 10.208C64.2693 9.536 64.6213 8.928 65.08 8.384C65.5387 7.82933 66.104 7.392 66.776 7.072C67.448 6.74133 68.2107 6.576 69.064 6.576C70.0773 6.576 70.9413 6.81067 71.656 7.28C72.3813 7.73867 72.9147 8.33067 73.256 9.056L72.376 9.6C72.1307 9.09867 71.8213 8.704 71.448 8.416C71.0747 8.11733 70.6747 7.904 70.248 7.776C69.832 7.648 69.416 7.584 69 7.584C68.3173 7.584 67.7147 7.72267 67.192 8C66.6693 8.26667 66.2267 8.62933 65.864 9.088C65.512 9.536 65.2453 10.0427 65.064 10.608C64.8827 11.1627 64.792 11.728 64.792 12.304C64.792 12.9333 64.8987 13.536 65.112 14.112C65.3253 14.688 65.624 15.2 66.008 15.648C66.392 16.0853 66.84 16.4373 67.352 16.704C67.8747 16.96 68.44 17.088 69.048 17.088C69.4747 17.088 69.912 17.0133 70.36 16.864C70.808 16.7147 71.224 16.4853 71.608 16.176C72.0027 15.8667 72.3173 15.4667 72.552 14.976L73.48 15.456C73.2453 16.0213 72.8827 16.5013 72.392 16.896C71.9013 17.2907 71.352 17.5893 70.744 17.792C70.1467 17.9947 69.56 18.096 68.984 18.096C68.2053 18.096 67.4907 17.9307 66.84 17.6C66.1893 17.2587 65.624 16.8107 65.144 16.256C64.6747 15.6907 64.312 15.0613 64.056 14.368C63.8 13.664 63.672 12.9547 63.672 12.24ZM74.4967 15.6C74.4967 15.0773 74.6461 14.6293 74.9448 14.256C75.2434 13.872 75.6541 13.5787 76.1768 13.376C76.7101 13.1627 77.3234 13.056 78.0168 13.056C78.4221 13.056 78.8434 13.088 79.2808 13.152C79.7181 13.216 80.1074 13.312 80.4488 13.44V12.736C80.4488 12.032 80.2408 11.472 79.8248 11.056C79.4088 10.64 78.8328 10.432 78.0968 10.432C77.6488 10.432 77.2061 10.5173 76.7688 10.688C76.3421 10.848 75.8941 11.088 75.4248 11.408L75.0088 10.64C75.5528 10.2667 76.0861 9.98933 76.6088 9.808C77.1314 9.616 77.6648 9.52 78.2088 9.52C79.2328 9.52 80.0434 9.81333 80.6408 10.4C81.2381 10.9867 81.5368 11.7973 81.5368 12.832V16.688C81.5368 16.8373 81.5688 16.9493 81.6328 17.024C81.6968 17.088 81.7981 17.1253 81.9368 17.136V18C81.8194 18.0107 81.7181 18.0213 81.6328 18.032C81.5474 18.0427 81.4834 18.0427 81.4408 18.032C81.1741 18.0213 80.9714 17.936 80.8328 17.776C80.6941 17.616 80.6194 17.4453 80.6088 17.264L80.5928 16.656C80.2194 17.136 79.7341 17.5093 79.1368 17.776C78.5394 18.032 77.9314 18.16 77.3128 18.16C76.7794 18.16 76.2941 18.048 75.8568 17.824C75.4301 17.5893 75.0941 17.28 74.8488 16.896C74.6141 16.5013 74.4967 16.0693 74.4967 15.6ZM80.0808 16.24C80.1981 16.0907 80.2888 15.9467 80.3528 15.808C80.4168 15.6693 80.4488 15.5467 80.4488 15.44V14.224C80.0861 14.0853 79.7074 13.9787 79.3128 13.904C78.9288 13.8293 78.5394 13.792 78.1448 13.792C77.3661 13.792 76.7368 13.9467 76.2568 14.256C75.7768 14.5653 75.5368 14.9867 75.5368 15.52C75.5368 15.8293 75.6168 16.1227 75.7768 16.4C75.9368 16.6667 76.1714 16.8907 76.4808 17.072C76.7901 17.2427 77.1528 17.328 77.5688 17.328C78.0914 17.328 78.5768 17.2267 79.0248 17.024C79.4834 16.8213 79.8354 16.56 80.0808 16.24ZM83.8715 18V9.68H84.9595V16.528L90.0315 9.664H91.0075V18H89.9195V11.264L84.9275 18H83.8715ZM87.4555 8.608C86.7302 8.608 86.1702 8.43733 85.7755 8.096C85.3808 7.75467 85.1835 7.32267 85.1835 6.8H85.9835C85.9835 7.12 86.1008 7.38667 86.3355 7.6C86.5808 7.81333 86.9542 7.92 87.4555 7.92C87.9462 7.92 88.3035 7.81867 88.5275 7.616C88.7622 7.41333 88.8955 7.14133 88.9275 6.8H89.7115C89.7115 7.32267 89.5142 7.75467 89.1195 8.096C88.7248 8.43733 88.1702 8.608 87.4555 8.608ZM95.4675 18V10.64H92.4915V9.664H99.5315V10.64H96.5555V18H95.4675ZM109.347 18.16C108.653 18.16 108.029 17.9787 107.475 17.616C106.931 17.2533 106.499 16.8053 106.179 16.272V21.408H105.091V9.664H106.067V11.28C106.397 10.7573 106.84 10.336 107.395 10.016C107.949 9.68533 108.541 9.52 109.171 9.52C109.747 9.52 110.275 9.64267 110.755 9.888C111.235 10.1227 111.651 10.4427 112.003 10.848C112.355 11.2533 112.627 11.7173 112.819 12.24C113.021 12.752 113.123 13.2853 113.123 13.84C113.123 14.6187 112.963 15.3387 112.643 16C112.333 16.6507 111.896 17.1733 111.331 17.568C110.765 17.9627 110.104 18.16 109.347 18.16ZM109.043 17.2C109.501 17.2 109.912 17.1093 110.275 16.928C110.637 16.736 110.947 16.48 111.203 16.16C111.469 15.84 111.672 15.4827 111.811 15.088C111.949 14.6827 112.019 14.2667 112.019 13.84C112.019 13.392 111.939 12.9653 111.779 12.56C111.629 12.1547 111.411 11.7973 111.123 11.488C110.835 11.1787 110.504 10.9333 110.131 10.752C109.757 10.5707 109.352 10.48 108.915 10.48C108.637 10.48 108.349 10.5333 108.051 10.64C107.752 10.7467 107.464 10.9013 107.187 11.104C106.92 11.296 106.696 11.5147 106.515 11.76C106.333 12.0053 106.221 12.2667 106.179 12.544V15.104C106.349 15.4987 106.579 15.856 106.867 16.176C107.155 16.4853 107.485 16.736 107.859 16.928C108.243 17.1093 108.637 17.2 109.043 17.2ZM114.294 15.6C114.294 15.0773 114.443 14.6293 114.742 14.256C115.04 13.872 115.451 13.5787 115.974 13.376C116.507 13.1627 117.12 13.056 117.814 13.056C118.219 13.056 118.64 13.088 119.078 13.152C119.515 13.216 119.904 13.312 120.246 13.44V12.736C120.246 12.032 120.038 11.472 119.622 11.056C119.206 10.64 118.63 10.432 117.894 10.432C117.446 10.432 117.003 10.5173 116.566 10.688C116.139 10.848 115.691 11.088 115.222 11.408L114.806 10.64C115.35 10.2667 115.883 9.98933 116.406 9.808C116.928 9.616 117.462 9.52 118.006 9.52C119.03 9.52 119.84 9.81333 120.438 10.4C121.035 10.9867 121.334 11.7973 121.334 12.832V16.688C121.334 16.8373 121.366 16.9493 121.43 17.024C121.494 17.088 121.595 17.1253 121.734 17.136V18C121.616 18.0107 121.515 18.0213 121.43 18.032C121.344 18.0427 121.28 18.0427 121.238 18.032C120.971 18.0213 120.768 17.936 120.63 17.776C120.491 17.616 120.416 17.4453 120.406 17.264L120.39 16.656C120.016 17.136 119.531 17.5093 118.934 17.776C118.336 18.032 117.728 18.16 117.11 18.16C116.576 18.16 116.091 18.048 115.654 17.824C115.227 17.5893 114.891 17.28 114.646 16.896C114.411 16.5013 114.294 16.0693 114.294 15.6ZM119.878 16.24C119.995 16.0907 120.086 15.9467 120.15 15.808C120.214 15.6693 120.246 15.5467 120.246 15.44V14.224C119.883 14.0853 119.504 13.9787 119.11 13.904C118.726 13.8293 118.336 13.792 117.942 13.792C117.163 13.792 116.534 13.9467 116.054 14.256C115.574 14.5653 115.334 14.9867 115.334 15.52C115.334 15.8293 115.414 16.1227 115.574 16.4C115.734 16.6667 115.968 16.8907 116.278 17.072C116.587 17.2427 116.95 17.328 117.366 17.328C117.888 17.328 118.374 17.2267 118.822 17.024C119.28 16.8213 119.632 16.56 119.878 16.24ZM126.1 18.096C125.332 18.096 124.676 17.952 124.132 17.664C123.588 17.3653 123.172 16.9493 122.884 16.416L123.78 16.016C123.983 16.3893 124.276 16.6827 124.66 16.896C125.044 17.0987 125.508 17.2 126.052 17.2C126.703 17.2 127.22 17.0507 127.604 16.752C127.999 16.4533 128.196 16.0533 128.196 15.552C128.196 15.0933 128.042 14.7253 127.732 14.448C127.423 14.1707 126.996 14.0267 126.452 14.016H125.604V13.264H126.516C126.751 13.264 126.964 13.2 127.156 13.072C127.348 12.944 127.498 12.7733 127.604 12.56C127.711 12.3467 127.764 12.1067 127.764 11.84C127.764 11.424 127.615 11.088 127.316 10.832C127.028 10.576 126.602 10.448 126.036 10.448C125.567 10.448 125.172 10.544 124.852 10.736C124.543 10.9173 124.292 11.1893 124.1 11.552L123.268 11.104C123.514 10.6133 123.876 10.2293 124.356 9.952C124.847 9.67467 125.418 9.536 126.068 9.536C126.602 9.536 127.066 9.62667 127.46 9.808C127.866 9.97867 128.18 10.2293 128.404 10.56C128.639 10.88 128.756 11.2693 128.756 11.728C128.756 12.1227 128.66 12.4907 128.468 12.832C128.276 13.1627 128.01 13.4133 127.668 13.584C128.159 13.7333 128.538 13.9947 128.804 14.368C129.082 14.7413 129.22 15.1787 129.22 15.68C129.22 16.1813 129.087 16.6133 128.82 16.976C128.554 17.3387 128.186 17.616 127.716 17.808C127.247 18 126.708 18.096 126.1 18.096ZM135.3 18.16C134.606 18.16 133.982 17.9787 133.428 17.616C132.884 17.2533 132.452 16.8053 132.132 16.272V21.408H131.044V9.664H132.02V11.28C132.35 10.7573 132.793 10.336 133.348 10.016C133.902 9.68533 134.494 9.52 135.124 9.52C135.7 9.52 136.228 9.64267 136.708 9.888C137.188 10.1227 137.604 10.4427 137.956 10.848C138.308 11.2533 138.58 11.7173 138.772 12.24C138.974 12.752 139.076 13.2853 139.076 13.84C139.076 14.6187 138.916 15.3387 138.596 16C138.286 16.6507 137.849 17.1733 137.284 17.568C136.718 17.9627 136.057 18.16 135.3 18.16ZM134.996 17.2C135.454 17.2 135.865 17.1093 136.228 16.928C136.59 16.736 136.9 16.48 137.156 16.16C137.422 15.84 137.625 15.4827 137.764 15.088C137.902 14.6827 137.972 14.2667 137.972 13.84C137.972 13.392 137.892 12.9653 137.732 12.56C137.582 12.1547 137.364 11.7973 137.076 11.488C136.788 11.1787 136.457 10.9333 136.084 10.752C135.71 10.5707 135.305 10.48 134.868 10.48C134.59 10.48 134.302 10.5333 134.004 10.64C133.705 10.7467 133.417 10.9013 133.14 11.104C132.873 11.296 132.649 11.5147 132.468 11.76C132.286 12.0053 132.174 12.2667 132.132 12.544V15.104C132.302 15.4987 132.532 15.856 132.82 16.176C133.108 16.4853 133.438 16.736 133.812 16.928C134.196 17.1093 134.59 17.2 134.996 17.2ZM140.247 15.6C140.247 15.0773 140.396 14.6293 140.695 14.256C140.993 13.872 141.404 13.5787 141.927 13.376C142.46 13.1627 143.073 13.056 143.767 13.056C144.172 13.056 144.593 13.088 145.031 13.152C145.468 13.216 145.857 13.312 146.199 13.44V12.736C146.199 12.032 145.991 11.472 145.575 11.056C145.159 10.64 144.583 10.432 143.847 10.432C143.399 10.432 142.956 10.5173 142.519 10.688C142.092 10.848 141.644 11.088 141.175 11.408L140.759 10.64C141.303 10.2667 141.836 9.98933 142.359 9.808C142.881 9.616 143.415 9.52 143.959 9.52C144.983 9.52 145.793 9.81333 146.391 10.4C146.988 10.9867 147.287 11.7973 147.287 12.832V16.688C147.287 16.8373 147.319 16.9493 147.383 17.024C147.447 17.088 147.548 17.1253 147.687 17.136V18C147.569 18.0107 147.468 18.0213 147.383 18.032C147.297 18.0427 147.233 18.0427 147.191 18.032C146.924 18.0213 146.721 17.936 146.583 17.776C146.444 17.616 146.369 17.4453 146.359 17.264L146.343 16.656C145.969 17.136 145.484 17.5093 144.887 17.776C144.289 18.032 143.681 18.16 143.063 18.16C142.529 18.16 142.044 18.048 141.607 17.824C141.18 17.5893 140.844 17.28 140.599 16.896C140.364 16.5013 140.247 16.0693 140.247 15.6ZM145.831 16.24C145.948 16.0907 146.039 15.9467 146.103 15.808C146.167 15.6693 146.199 15.5467 146.199 15.44V14.224C145.836 14.0853 145.457 13.9787 145.063 13.904C144.679 13.8293 144.289 13.792 143.895 13.792C143.116 13.792 142.487 13.9467 142.007 14.256C141.527 14.5653 141.287 14.9867 141.287 15.52C141.287 15.8293 141.367 16.1227 141.527 16.4C141.687 16.6667 141.921 16.8907 142.231 17.072C142.54 17.2427 142.903 17.328 143.319 17.328C143.841 17.328 144.327 17.2267 144.775 17.024C145.233 16.8213 145.585 16.56 145.831 16.24ZM153.462 18.16C152.118 18.16 151.099 17.7493 150.406 16.928C149.723 16.096 149.382 14.9493 149.382 13.488C149.382 12.4533 149.467 11.5787 149.638 10.864C149.808 10.1493 150.059 9.56267 150.39 9.104C150.72 8.63467 151.126 8.25067 151.606 7.952C152.096 7.65333 152.656 7.408 153.286 7.216L156.79 6.064L156.885 7.008L153.51 8.112C152.87 8.32533 152.336 8.59733 151.91 8.928C151.483 9.25867 151.147 9.68 150.902 10.192C150.667 10.6933 150.512 11.3493 150.438 12.16C150.715 11.5413 151.142 11.0667 151.718 10.736C152.294 10.3947 152.96 10.224 153.718 10.224C154.528 10.224 155.216 10.3893 155.782 10.72C156.358 11.0507 156.795 11.5093 157.094 12.096C157.392 12.6827 157.542 13.36 157.542 14.128C157.542 14.9387 157.382 15.648 157.062 16.256C156.752 16.8533 156.294 17.3227 155.686 17.664C155.088 17.9947 154.347 18.16 153.462 18.16ZM153.462 17.2C154.411 17.2 155.142 16.928 155.654 16.384C156.176 15.8293 156.438 15.0933 156.438 14.176C156.438 13.28 156.182 12.5493 155.67 11.984C155.168 11.4187 154.432 11.136 153.462 11.136C152.907 11.136 152.406 11.2533 151.958 11.488C151.51 11.7227 151.152 12.064 150.886 12.512C150.63 12.96 150.502 13.5147 150.502 14.176C150.502 14.752 150.614 15.2693 150.838 15.728C151.072 16.1867 151.408 16.5493 151.846 16.816C152.283 17.072 152.822 17.2 153.462 17.2ZM162.924 18.16C162.327 18.16 161.772 18.048 161.26 17.824C160.759 17.5893 160.321 17.2747 159.948 16.88C159.585 16.4747 159.303 16.016 159.1 15.504C158.897 14.9813 158.796 14.432 158.796 13.856C158.796 13.2587 158.897 12.704 159.1 12.192C159.303 11.6693 159.591 11.2107 159.964 10.816C160.337 10.4107 160.775 10.096 161.276 9.872C161.788 9.63733 162.343 9.52 162.94 9.52C163.537 9.52 164.087 9.63733 164.588 9.872C165.089 10.096 165.527 10.4107 165.9 10.816C166.273 11.2107 166.561 11.6693 166.764 12.192C166.967 12.704 167.068 13.2587 167.068 13.856C167.068 14.432 166.967 14.9813 166.764 15.504C166.561 16.016 166.273 16.4747 165.9 16.88C165.537 17.2747 165.1 17.5893 164.588 17.824C164.087 18.048 163.532 18.16 162.924 18.16ZM159.9 13.872C159.9 14.4907 160.033 15.056 160.3 15.568C160.577 16.0693 160.945 16.4693 161.404 16.768C161.863 17.056 162.369 17.2 162.924 17.2C163.479 17.2 163.985 17.0507 164.444 16.752C164.903 16.4533 165.271 16.048 165.548 15.536C165.825 15.0133 165.964 14.448 165.964 13.84C165.964 13.2213 165.825 12.656 165.548 12.144C165.271 11.632 164.903 11.2267 164.444 10.928C163.985 10.6293 163.479 10.48 162.924 10.48C162.369 10.48 161.863 10.6347 161.404 10.944C160.956 11.2533 160.593 11.664 160.316 12.176C160.039 12.6773 159.9 13.2427 159.9 13.872ZM170.968 18V10.64H167.992V9.664H175.032V10.64H172.056V18H170.968ZM175.794 15.6C175.794 15.0773 175.943 14.6293 176.242 14.256C176.54 13.872 176.951 13.5787 177.474 13.376C178.007 13.1627 178.62 13.056 179.314 13.056C179.719 13.056 180.14 13.088 180.578 13.152C181.015 13.216 181.404 13.312 181.746 13.44V12.736C181.746 12.032 181.538 11.472 181.122 11.056C180.706 10.64 180.13 10.432 179.394 10.432C178.946 10.432 178.503 10.5173 178.066 10.688C177.639 10.848 177.191 11.088 176.722 11.408L176.306 10.64C176.85 10.2667 177.383 9.98933 177.906 9.808C178.428 9.616 178.962 9.52 179.506 9.52C180.53 9.52 181.34 9.81333 181.938 10.4C182.535 10.9867 182.834 11.7973 182.834 12.832V16.688C182.834 16.8373 182.866 16.9493 182.93 17.024C182.994 17.088 183.095 17.1253 183.234 17.136V18C183.116 18.0107 183.015 18.0213 182.93 18.032C182.844 18.0427 182.78 18.0427 182.738 18.032C182.471 18.0213 182.268 17.936 182.13 17.776C181.991 17.616 181.916 17.4453 181.906 17.264L181.89 16.656C181.516 17.136 181.031 17.5093 180.434 17.776C179.836 18.032 179.228 18.16 178.61 18.16C178.076 18.16 177.591 18.048 177.154 17.824C176.727 17.5893 176.391 17.28 176.146 16.896C175.911 16.5013 175.794 16.0693 175.794 15.6ZM181.378 16.24C181.495 16.0907 181.586 15.9467 181.65 15.808C181.714 15.6693 181.746 15.5467 181.746 15.44V14.224C181.383 14.0853 181.004 13.9787 180.61 13.904C180.226 13.8293 179.836 13.792 179.442 13.792C178.663 13.792 178.034 13.9467 177.554 14.256C177.074 14.5653 176.834 14.9867 176.834 15.52C176.834 15.8293 176.914 16.1227 177.074 16.4C177.234 16.6667 177.468 16.8907 177.778 17.072C178.087 17.2427 178.45 17.328 178.866 17.328C179.388 17.328 179.874 17.2267 180.322 17.024C180.78 16.8213 181.132 16.56 181.378 16.24ZM185.168 18V9.664H186.256V13.248H191.024V9.664H192.112V18H191.024V14.224H186.256V18H185.168ZM197.999 20.176V17.008H198.479C198.777 17.008 199.039 16.8853 199.263 16.64C199.497 16.3947 199.695 16 199.855 15.456C200.025 14.9013 200.159 14.16 200.255 13.232C200.361 12.304 200.436 11.152 200.479 9.776L200.559 6.64H207.359V17.008H208.719V20.176H207.727V18H198.991V20.176H197.999ZM200.079 17.008H206.239V7.632H201.583L201.519 9.904C201.487 11.344 201.412 12.5493 201.295 13.52C201.188 14.48 201.033 15.2427 200.831 15.808C200.628 16.3627 200.377 16.7627 200.079 17.008ZM214.175 18.16C213.578 18.16 213.023 18.048 212.511 17.824C211.999 17.5893 211.556 17.2747 211.183 16.88C210.81 16.4747 210.516 16.0107 210.303 15.488C210.1 14.9653 209.999 14.4053 209.999 13.808C209.999 13.0293 210.175 12.3147 210.527 11.664C210.89 11.0133 211.386 10.496 212.015 10.112C212.644 9.71733 213.359 9.52 214.159 9.52C214.98 9.52 215.695 9.71733 216.303 10.112C216.922 10.5067 217.407 11.0293 217.759 11.68C218.111 12.32 218.287 13.024 218.287 13.792C218.287 13.8773 218.287 13.9627 218.287 14.048C218.287 14.1227 218.282 14.1813 218.271 14.224H211.135C211.188 14.8213 211.354 15.3547 211.631 15.824C211.919 16.2827 212.287 16.6507 212.735 16.928C213.194 17.1947 213.69 17.328 214.223 17.328C214.767 17.328 215.279 17.1893 215.759 16.912C216.25 16.6347 216.591 16.272 216.783 15.824L217.727 16.08C217.556 16.4747 217.295 16.832 216.943 17.152C216.591 17.472 216.175 17.7227 215.695 17.904C215.226 18.0747 214.719 18.16 214.175 18.16ZM211.103 13.44H217.263C217.22 12.832 217.055 12.2987 216.767 11.84C216.49 11.3813 216.122 11.024 215.663 10.768C215.215 10.5013 214.719 10.368 214.175 10.368C213.631 10.368 213.135 10.5013 212.687 10.768C212.239 11.024 211.871 11.3867 211.583 11.856C211.306 12.3147 211.146 12.8427 211.103 13.44ZM219.95 18V9.664H226.654V18H225.566V10.64H221.038V18H219.95ZM228.387 15.6C228.387 15.0773 228.537 14.6293 228.835 14.256C229.134 13.872 229.545 13.5787 230.067 13.376C230.601 13.1627 231.214 13.056 231.907 13.056C232.313 13.056 232.734 13.088 233.171 13.152C233.609 13.216 233.998 13.312 234.339 13.44V12.736C234.339 12.032 234.131 11.472 233.715 11.056C233.299 10.64 232.723 10.432 231.987 10.432C231.539 10.432 231.097 10.5173 230.659 10.688C230.233 10.848 229.785 11.088 229.315 11.408L228.899 10.64C229.443 10.2667 229.977 9.98933 230.499 9.808C231.022 9.616 231.555 9.52 232.099 9.52C233.123 9.52 233.934 9.81333 234.531 10.4C235.129 10.9867 235.427 11.7973 235.427 12.832V16.688C235.427 16.8373 235.459 16.9493 235.523 17.024C235.587 17.088 235.689 17.1253 235.827 17.136V18C235.71 18.0107 235.609 18.0213 235.523 18.032C235.438 18.0427 235.374 18.0427 235.331 18.032C235.065 18.0213 234.862 17.936 234.723 17.776C234.585 17.616 234.51 17.4453 234.499 17.264L234.483 16.656C234.11 17.136 233.625 17.5093 233.027 17.776C232.43 18.032 231.822 18.16 231.203 18.16C230.67 18.16 230.185 18.048 229.747 17.824C229.321 17.5893 228.985 17.28 228.739 16.896C228.505 16.5013 228.387 16.0693 228.387 15.6ZM233.971 16.24C234.089 16.0907 234.179 15.9467 234.243 15.808C234.307 15.6693 234.339 15.5467 234.339 15.44V14.224C233.977 14.0853 233.598 13.9787 233.203 13.904C232.819 13.8293 232.43 13.792 232.035 13.792C231.257 13.792 230.627 13.9467 230.147 14.256C229.667 14.5653 229.427 14.9867 229.427 15.52C229.427 15.8293 229.507 16.1227 229.667 16.4C229.827 16.6667 230.062 16.8907 230.371 17.072C230.681 17.2427 231.043 17.328 231.459 17.328C231.982 17.328 232.467 17.2267 232.915 17.024C233.374 16.8213 233.726 16.56 233.971 16.24ZM242.034 18.16C241.341 18.16 240.717 17.9787 240.162 17.616C239.618 17.2533 239.186 16.8053 238.866 16.272V21.408H237.778V9.664H238.754V11.28C239.085 10.7573 239.527 10.336 240.082 10.016C240.637 9.68533 241.229 9.52 241.858 9.52C242.434 9.52 242.962 9.64267 243.442 9.888C243.922 10.1227 244.338 10.4427 244.69 10.848C245.042 11.2533 245.314 11.7173 245.506 12.24C245.709 12.752 245.81 13.2853 245.81 13.84C245.81 14.6187 245.65 15.3387 245.33 16C245.021 16.6507 244.583 17.1733 244.018 17.568C243.453 17.9627 242.791 18.16 242.034 18.16ZM241.73 17.2C242.189 17.2 242.599 17.1093 242.962 16.928C243.325 16.736 243.634 16.48 243.89 16.16C244.157 15.84 244.359 15.4827 244.498 15.088C244.637 14.6827 244.706 14.2667 244.706 13.84C244.706 13.392 244.626 12.9653 244.466 12.56C244.317 12.1547 244.098 11.7973 243.81 11.488C243.522 11.1787 243.191 10.9333 242.818 10.752C242.445 10.5707 242.039 10.48 241.602 10.48C241.325 10.48 241.037 10.5333 240.738 10.64C240.439 10.7467 240.151 10.9013 239.874 11.104C239.607 11.296 239.383 11.5147 239.202 11.76C239.021 12.0053 238.909 12.2667 238.866 12.544V15.104C239.037 15.4987 239.266 15.856 239.554 16.176C239.842 16.4853 240.173 16.736 240.546 16.928C240.93 17.1093 241.325 17.2 241.73 17.2ZM249.733 18V10.64H246.757V9.664H253.797V10.64H250.821V18H249.733ZM254.559 15.6C254.559 15.0773 254.709 14.6293 255.007 14.256C255.306 13.872 255.717 13.5787 256.239 13.376C256.773 13.1627 257.386 13.056 258.079 13.056C258.485 13.056 258.906 13.088 259.343 13.152C259.781 13.216 260.17 13.312 260.511 13.44V12.736C260.511 12.032 260.303 11.472 259.887 11.056C259.471 10.64 258.895 10.432 258.159 10.432C257.711 10.432 257.269 10.5173 256.831 10.688C256.405 10.848 255.957 11.088 255.487 11.408L255.071 10.64C255.615 10.2667 256.149 9.98933 256.671 9.808C257.194 9.616 257.727 9.52 258.271 9.52C259.295 9.52 260.106 9.81333 260.703 10.4C261.301 10.9867 261.599 11.7973 261.599 12.832V16.688C261.599 16.8373 261.631 16.9493 261.695 17.024C261.759 17.088 261.861 17.1253 261.999 17.136V18C261.882 18.0107 261.781 18.0213 261.695 18.032C261.61 18.0427 261.546 18.0427 261.503 18.032C261.237 18.0213 261.034 17.936 260.895 17.776C260.757 17.616 260.682 17.4453 260.671 17.264L260.655 16.656C260.282 17.136 259.797 17.5093 259.199 17.776C258.602 18.032 257.994 18.16 257.375 18.16C256.842 18.16 256.357 18.048 255.919 17.824C255.493 17.5893 255.157 17.28 254.911 16.896C254.677 16.5013 254.559 16.0693 254.559 15.6ZM260.143 16.24C260.261 16.0907 260.351 15.9467 260.415 15.808C260.479 15.6693 260.511 15.5467 260.511 15.44V14.224C260.149 14.0853 259.77 13.9787 259.375 13.904C258.991 13.8293 258.602 13.792 258.207 13.792C257.429 13.792 256.799 13.9467 256.319 14.256C255.839 14.5653 255.599 14.9867 255.599 15.52C255.599 15.8293 255.679 16.1227 255.839 16.4C255.999 16.6667 256.234 16.8907 256.543 17.072C256.853 17.2427 257.215 17.328 257.631 17.328C258.154 17.328 258.639 17.2267 259.087 17.024C259.546 16.8213 259.898 16.56 260.143 16.24ZM263.934 18V9.664H265.054L268.366 15.408L271.694 9.664H272.766V18H271.726V11.296L268.718 16.512H268.014L264.974 11.296V18H263.934ZM278.769 18.16C278.171 18.16 277.617 18.048 277.105 17.824C276.593 17.5893 276.15 17.2747 275.777 16.88C275.403 16.4747 275.11 16.0107 274.897 15.488C274.694 14.9653 274.593 14.4053 274.593 13.808C274.593 13.0293 274.769 12.3147 275.121 11.664C275.483 11.0133 275.979 10.496 276.609 10.112C277.238 9.71733 277.953 9.52 278.753 9.52C279.574 9.52 280.289 9.71733 280.897 10.112C281.515 10.5067 282.001 11.0293 282.353 11.68C282.705 12.32 282.881 13.024 282.881 13.792C282.881 13.8773 282.881 13.9627 282.881 14.048C282.881 14.1227 282.875 14.1813 282.865 14.224H275.729C275.782 14.8213 275.947 15.3547 276.225 15.824C276.513 16.2827 276.881 16.6507 277.329 16.928C277.787 17.1947 278.283 17.328 278.817 17.328C279.361 17.328 279.873 17.1893 280.353 16.912C280.843 16.6347 281.185 16.272 281.377 15.824L282.321 16.08C282.15 16.4747 281.889 16.832 281.537 17.152C281.185 17.472 280.769 17.7227 280.289 17.904C279.819 18.0747 279.313 18.16 278.769 18.16ZM275.697 13.44H281.857C281.814 12.832 281.649 12.2987 281.361 11.84C281.083 11.3813 280.715 11.024 280.257 10.768C279.809 10.5013 279.313 10.368 278.769 10.368C278.225 10.368 277.729 10.5013 277.281 10.768C276.833 11.024 276.465 11.3867 276.177 11.856C275.899 12.3147 275.739 12.8427 275.697 13.44ZM284.543 18V9.664H285.631V13.248H290.399V9.664H291.487V18H290.399V14.224H285.631V18H284.543ZM295.968 18V10.64H292.992V9.664H300.032V10.64H297.056V18H295.968ZM305.065 18.16C304.467 18.16 303.913 18.048 303.401 17.824C302.899 17.5893 302.462 17.2747 302.089 16.88C301.726 16.4747 301.443 16.016 301.241 15.504C301.038 14.9813 300.937 14.432 300.937 13.856C300.937 13.2587 301.038 12.704 301.241 12.192C301.443 11.6693 301.731 11.2107 302.105 10.816C302.478 10.4107 302.915 10.096 303.417 9.872C303.929 9.63733 304.483 9.52 305.081 9.52C305.678 9.52 306.227 9.63733 306.729 9.872C307.23 10.096 307.667 10.4107 308.041 10.816C308.414 11.2107 308.702 11.6693 308.905 12.192C309.107 12.704 309.209 13.2587 309.209 13.856C309.209 14.432 309.107 14.9813 308.905 15.504C308.702 16.016 308.414 16.4747 308.041 16.88C307.678 17.2747 307.241 17.5893 306.729 17.824C306.227 18.048 305.673 18.16 305.065 18.16ZM302.041 13.872C302.041 14.4907 302.174 15.056 302.441 15.568C302.718 16.0693 303.086 16.4693 303.545 16.768C304.003 17.056 304.51 17.2 305.065 17.2C305.619 17.2 306.126 17.0507 306.585 16.752C307.043 16.4533 307.411 16.048 307.689 15.536C307.966 15.0133 308.105 14.448 308.105 13.84C308.105 13.2213 307.966 12.656 307.689 12.144C307.411 11.632 307.043 11.2267 306.585 10.928C306.126 10.6293 305.619 10.48 305.065 10.48C304.51 10.48 304.003 10.6347 303.545 10.944C303.097 11.2533 302.734 11.664 302.457 12.176C302.179 12.6773 302.041 13.2427 302.041 13.872ZM311.012 18V9.664H312.132L315.444 15.408L318.772 9.664H319.844V18H318.804V11.296L315.796 16.512H315.092L312.052 11.296V18H311.012ZM70.84 43.936V42H64.184V33.664H65.272V41.04H69.592V33.664H70.68V41.04H71.816V43.936H70.84ZM73.4496 42V33.68H74.5376V40.528L79.6096 33.664H80.5856V42H79.4976V35.264L74.5056 42H73.4496ZM86.8056 45.408V42H86.4376C85.6163 42 84.9016 41.808 84.2936 41.424C83.6856 41.04 83.2163 40.5387 82.8856 39.92C82.555 39.2907 82.3896 38.6027 82.3896 37.856C82.3896 37.0987 82.555 36.4053 82.8856 35.776C83.227 35.1467 83.7016 34.64 84.3096 34.256C84.9176 33.872 85.627 33.68 86.4376 33.68H86.8056V30.32H87.8936V33.68H88.2616C89.0723 33.68 89.7816 33.872 90.3896 34.256C90.9976 34.64 91.467 35.1467 91.7976 35.776C92.139 36.4053 92.3096 37.0987 92.3096 37.856C92.3096 38.6027 92.1443 39.2907 91.8136 39.92C91.483 40.5387 91.0136 41.04 90.4056 41.424C89.7976 41.808 89.083 42 88.2616 42H87.8936V45.408H86.8056ZM86.4376 41.088H86.8376V34.592H86.4376C85.8616 34.592 85.3496 34.7413 84.9016 35.04C84.4536 35.328 84.1016 35.7227 83.8456 36.224C83.5896 36.7147 83.4616 37.264 83.4616 37.872C83.4616 38.4693 83.5843 39.0133 83.8296 39.504C84.0856 39.9947 84.4376 40.384 84.8856 40.672C85.3336 40.9493 85.851 41.088 86.4376 41.088ZM87.8456 41.088H88.2616C88.8483 41.088 89.3656 40.9493 89.8136 40.672C90.2616 40.384 90.6083 39.9947 90.8536 39.504C91.1096 39.0133 91.2376 38.4693 91.2376 37.872C91.2376 37.264 91.1096 36.7147 90.8536 36.224C90.5976 35.7227 90.2456 35.328 89.7976 35.04C89.3603 34.7413 88.8483 34.592 88.2616 34.592H87.8456V41.088ZM98.3935 42.16C97.7002 42.16 97.0762 41.9787 96.5215 41.616C95.9775 41.2533 95.5455 40.8053 95.2255 40.272V45.408H94.1375V33.664H95.1135V35.28C95.4442 34.7573 95.8868 34.336 96.4415 34.016C96.9962 33.6853 97.5882 33.52 98.2175 33.52C98.7935 33.52 99.3215 33.6427 99.8015 33.888C100.282 34.1227 100.698 34.4427 101.05 34.848C101.402 35.2533 101.674 35.7173 101.866 36.24C102.068 36.752 102.17 37.2853 102.17 37.84C102.17 38.6187 102.01 39.3387 101.69 40C101.38 40.6507 100.943 41.1733 100.378 41.568C99.8122 41.9627 99.1508 42.16 98.3935 42.16ZM98.0895 41.2C98.5482 41.2 98.9588 41.1093 99.3215 40.928C99.6842 40.736 99.9935 40.48 100.25 40.16C100.516 39.84 100.719 39.4827 100.858 39.088C100.996 38.6827 101.066 38.2667 101.066 37.84C101.066 37.392 100.986 36.9653 100.826 36.56C100.676 36.1547 100.458 35.7973 100.17 35.488C99.8815 35.1787 99.5508 34.9333 99.1775 34.752C98.8042 34.5707 98.3988 34.48 97.9615 34.48C97.6842 34.48 97.3962 34.5333 97.0975 34.64C96.7988 34.7467 96.5108 34.9013 96.2335 35.104C95.9668 35.296 95.7428 35.5147 95.5615 35.76C95.3802 36.0053 95.2682 36.2667 95.2255 36.544V39.104C95.3962 39.4987 95.6255 39.856 95.9135 40.176C96.2015 40.4853 96.5322 40.736 96.9055 40.928C97.2895 41.1093 97.6842 41.2 98.0895 41.2ZM107.565 42.16C106.967 42.16 106.413 42.048 105.901 41.824C105.399 41.5893 104.962 41.2747 104.589 40.88C104.226 40.4747 103.943 40.016 103.741 39.504C103.538 38.9813 103.437 38.432 103.437 37.856C103.437 37.2587 103.538 36.704 103.741 36.192C103.943 35.6693 104.231 35.2107 104.605 34.816C104.978 34.4107 105.415 34.096 105.917 33.872C106.429 33.6373 106.983 33.52 107.581 33.52C108.178 33.52 108.727 33.6373 109.229 33.872C109.73 34.096 110.167 34.4107 110.541 34.816C110.914 35.2107 111.202 35.6693 111.405 36.192C111.607 36.704 111.709 37.2587 111.709 37.856C111.709 38.432 111.607 38.9813 111.405 39.504C111.202 40.016 110.914 40.4747 110.541 40.88C110.178 41.2747 109.741 41.5893 109.229 41.824C108.727 42.048 108.173 42.16 107.565 42.16ZM104.541 37.872C104.541 38.4907 104.674 39.056 104.941 39.568C105.218 40.0693 105.586 40.4693 106.045 40.768C106.503 41.056 107.01 41.2 107.565 41.2C108.119 41.2 108.626 41.0507 109.085 40.752C109.543 40.4533 109.911 40.048 110.189 39.536C110.466 39.0133 110.605 38.448 110.605 37.84C110.605 37.2213 110.466 36.656 110.189 36.144C109.911 35.632 109.543 35.2267 109.085 34.928C108.626 34.6293 108.119 34.48 107.565 34.48C107.01 34.48 106.503 34.6347 106.045 34.944C105.597 35.2533 105.234 35.664 104.957 36.176C104.679 36.6773 104.541 37.2427 104.541 37.872ZM113.512 42V33.664H117.672C118.141 33.664 118.536 33.7653 118.856 33.968C119.176 34.16 119.416 34.4107 119.576 34.72C119.747 35.0293 119.832 35.36 119.832 35.712C119.832 36.16 119.725 36.5653 119.512 36.928C119.299 37.28 118.989 37.5467 118.584 37.728C119.064 37.8667 119.453 38.1173 119.752 38.48C120.051 38.8427 120.2 39.28 120.2 39.792C120.2 40.24 120.088 40.6293 119.864 40.96C119.651 41.2907 119.352 41.5467 118.968 41.728C118.595 41.9093 118.163 42 117.672 42H113.512ZM114.552 41.216H117.64C117.917 41.216 118.168 41.1467 118.392 41.008C118.627 40.8587 118.808 40.6667 118.936 40.432C119.075 40.1973 119.144 39.952 119.144 39.696C119.144 39.4187 119.08 39.168 118.952 38.944C118.824 38.7093 118.653 38.5227 118.44 38.384C118.227 38.2453 117.981 38.176 117.704 38.176H114.552V41.216ZM114.552 37.424H117.384C117.661 37.424 117.907 37.3493 118.12 37.2C118.333 37.0507 118.499 36.8587 118.616 36.624C118.733 36.3893 118.792 36.144 118.792 35.888C118.792 35.504 118.664 35.168 118.408 34.88C118.163 34.592 117.843 34.448 117.448 34.448H114.552V37.424ZM125.643 42.16C125.045 42.16 124.491 42.048 123.979 41.824C123.477 41.5893 123.04 41.2747 122.667 40.88C122.304 40.4747 122.021 40.016 121.819 39.504C121.616 38.9813 121.515 38.432 121.515 37.856C121.515 37.2587 121.616 36.704 121.819 36.192C122.021 35.6693 122.309 35.2107 122.683 34.816C123.056 34.4107 123.493 34.096 123.995 33.872C124.507 33.6373 125.061 33.52 125.659 33.52C126.256 33.52 126.805 33.6373 127.307 33.872C127.808 34.096 128.245 34.4107 128.619 34.816C128.992 35.2107 129.28 35.6693 129.483 36.192C129.685 36.704 129.787 37.2587 129.787 37.856C129.787 38.432 129.685 38.9813 129.483 39.504C129.28 40.016 128.992 40.4747 128.619 40.88C128.256 41.2747 127.819 41.5893 127.307 41.824C126.805 42.048 126.251 42.16 125.643 42.16ZM122.619 37.872C122.619 38.4907 122.752 39.056 123.019 39.568C123.296 40.0693 123.664 40.4693 124.123 40.768C124.581 41.056 125.088 41.2 125.643 41.2C126.197 41.2 126.704 41.0507 127.163 40.752C127.621 40.4533 127.989 40.048 128.267 39.536C128.544 39.0133 128.683 38.448 128.683 37.84C128.683 37.2213 128.544 36.656 128.267 36.144C127.989 35.632 127.621 35.2267 127.163 34.928C126.704 34.6293 126.197 34.48 125.643 34.48C125.088 34.48 124.581 34.6347 124.123 34.944C123.675 35.2533 123.312 35.664 123.035 36.176C122.757 36.6773 122.619 37.2427 122.619 37.872ZM131.59 42V33.664H136.566V34.64H132.678V42H131.59ZM141.643 42.16C141.045 42.16 140.491 42.048 139.979 41.824C139.477 41.5893 139.04 41.2747 138.667 40.88C138.304 40.4747 138.021 40.016 137.819 39.504C137.616 38.9813 137.515 38.432 137.515 37.856C137.515 37.2587 137.616 36.704 137.819 36.192C138.021 35.6693 138.309 35.2107 138.683 34.816C139.056 34.4107 139.493 34.096 139.995 33.872C140.507 33.6373 141.061 33.52 141.659 33.52C142.256 33.52 142.805 33.6373 143.307 33.872C143.808 34.096 144.245 34.4107 144.619 34.816C144.992 35.2107 145.28 35.6693 145.483 36.192C145.685 36.704 145.787 37.2587 145.787 37.856C145.787 38.432 145.685 38.9813 145.483 39.504C145.28 40.016 144.992 40.4747 144.619 40.88C144.256 41.2747 143.819 41.5893 143.307 41.824C142.805 42.048 142.251 42.16 141.643 42.16ZM138.619 37.872C138.619 38.4907 138.752 39.056 139.019 39.568C139.296 40.0693 139.664 40.4693 140.123 40.768C140.581 41.056 141.088 41.2 141.643 41.2C142.197 41.2 142.704 41.0507 143.163 40.752C143.621 40.4533 143.989 40.048 144.267 39.536C144.544 39.0133 144.683 38.448 144.683 37.84C144.683 37.2213 144.544 36.656 144.267 36.144C143.989 35.632 143.621 35.2267 143.163 34.928C142.704 34.6293 142.197 34.48 141.643 34.48C141.088 34.48 140.581 34.6347 140.123 34.944C139.675 35.2533 139.312 35.664 139.035 36.176C138.757 36.6773 138.619 37.2427 138.619 37.872ZM155.94 42.16C155.247 42.16 154.623 41.9787 154.068 41.616C153.524 41.2533 153.092 40.8053 152.772 40.272V45.408H151.684V33.664H152.66V35.28C152.991 34.7573 153.434 34.336 153.988 34.016C154.543 33.6853 155.135 33.52 155.764 33.52C156.34 33.52 156.868 33.6427 157.348 33.888C157.828 34.1227 158.244 34.4427 158.596 34.848C158.948 35.2533 159.22 35.7173 159.412 36.24C159.615 36.752 159.716 37.2853 159.716 37.84C159.716 38.6187 159.556 39.3387 159.236 40C158.927 40.6507 158.49 41.1733 157.924 41.568C157.359 41.9627 156.698 42.16 155.94 42.16ZM155.636 41.2C156.095 41.2 156.506 41.1093 156.868 40.928C157.231 40.736 157.54 40.48 157.796 40.16C158.063 39.84 158.266 39.4827 158.404 39.088C158.543 38.6827 158.612 38.2667 158.612 37.84C158.612 37.392 158.532 36.9653 158.372 36.56C158.223 36.1547 158.004 35.7973 157.716 35.488C157.428 35.1787 157.098 34.9333 156.724 34.752C156.351 34.5707 155.946 34.48 155.508 34.48C155.231 34.48 154.943 34.5333 154.644 34.64C154.346 34.7467 154.058 34.9013 153.78 35.104C153.514 35.296 153.29 35.5147 153.108 35.76C152.927 36.0053 152.815 36.2667 152.772 36.544V39.104C152.943 39.4987 153.172 39.856 153.46 40.176C153.748 40.4853 154.079 40.736 154.452 40.928C154.836 41.1093 155.231 41.2 155.636 41.2ZM160.887 39.6C160.887 39.0773 161.037 38.6293 161.335 38.256C161.634 37.872 162.045 37.5787 162.567 37.376C163.101 37.1627 163.714 37.056 164.407 37.056C164.813 37.056 165.234 37.088 165.671 37.152C166.109 37.216 166.498 37.312 166.839 37.44V36.736C166.839 36.032 166.631 35.472 166.215 35.056C165.799 34.64 165.223 34.432 164.487 34.432C164.039 34.432 163.597 34.5173 163.159 34.688C162.733 34.848 162.285 35.088 161.815 35.408L161.399 34.64C161.943 34.2667 162.477 33.9893 162.999 33.808C163.522 33.616 164.055 33.52 164.599 33.52C165.623 33.52 166.434 33.8133 167.031 34.4C167.629 34.9867 167.927 35.7973 167.927 36.832V40.688C167.927 40.8373 167.959 40.9493 168.023 41.024C168.087 41.088 168.189 41.1253 168.327 41.136V42C168.21 42.0107 168.109 42.0213 168.023 42.032C167.938 42.0427 167.874 42.0427 167.831 42.032C167.565 42.0213 167.362 41.936 167.223 41.776C167.085 41.616 167.01 41.4453 166.999 41.264L166.983 40.656C166.61 41.136 166.125 41.5093 165.527 41.776C164.93 42.032 164.322 42.16 163.703 42.16C163.17 42.16 162.685 42.048 162.247 41.824C161.821 41.5893 161.485 41.28 161.239 40.896C161.005 40.5013 160.887 40.0693 160.887 39.6ZM166.471 40.24C166.589 40.0907 166.679 39.9467 166.743 39.808C166.807 39.6693 166.839 39.5467 166.839 39.44V38.224C166.477 38.0853 166.098 37.9787 165.703 37.904C165.319 37.8293 164.93 37.792 164.535 37.792C163.757 37.792 163.127 37.9467 162.647 38.256C162.167 38.5653 161.927 38.9867 161.927 39.52C161.927 39.8293 162.007 40.1227 162.167 40.4C162.327 40.6667 162.562 40.8907 162.871 41.072C163.181 41.2427 163.543 41.328 163.959 41.328C164.482 41.328 164.967 41.2267 165.415 41.024C165.874 40.8213 166.226 40.56 166.471 40.24ZM172.694 42.096C171.926 42.096 171.27 41.952 170.726 41.664C170.182 41.3653 169.766 40.9493 169.478 40.416L170.374 40.016C170.577 40.3893 170.87 40.6827 171.254 40.896C171.638 41.0987 172.102 41.2 172.646 41.2C173.297 41.2 173.814 41.0507 174.198 40.752C174.593 40.4533 174.79 40.0533 174.79 39.552C174.79 39.0933 174.635 38.7253 174.326 38.448C174.017 38.1707 173.59 38.0267 173.046 38.016H172.198V37.264H173.11C173.345 37.264 173.558 37.2 173.75 37.072C173.942 36.944 174.091 36.7733 174.198 36.56C174.305 36.3467 174.358 36.1067 174.358 35.84C174.358 35.424 174.209 35.088 173.91 34.832C173.622 34.576 173.195 34.448 172.63 34.448C172.161 34.448 171.766 34.544 171.446 34.736C171.137 34.9173 170.886 35.1893 170.694 35.552L169.862 35.104C170.107 34.6133 170.47 34.2293 170.95 33.952C171.441 33.6747 172.011 33.536 172.662 33.536C173.195 33.536 173.659 33.6267 174.054 33.808C174.459 33.9787 174.774 34.2293 174.998 34.56C175.233 34.88 175.35 35.2693 175.35 35.728C175.35 36.1227 175.254 36.4907 175.062 36.832C174.87 37.1627 174.603 37.4133 174.262 37.584C174.753 37.7333 175.131 37.9947 175.398 38.368C175.675 38.7413 175.814 39.1787 175.814 39.68C175.814 40.1813 175.681 40.6133 175.414 40.976C175.147 41.3387 174.779 41.616 174.31 41.808C173.841 42 173.302 42.096 172.694 42.096ZM177.622 42V33.664H181.782C182.251 33.664 182.646 33.7653 182.966 33.968C183.286 34.16 183.526 34.4107 183.686 34.72C183.856 35.0293 183.942 35.36 183.942 35.712C183.942 36.16 183.835 36.5653 183.622 36.928C183.408 37.28 183.099 37.5467 182.694 37.728C183.174 37.8667 183.563 38.1173 183.862 38.48C184.16 38.8427 184.31 39.28 184.31 39.792C184.31 40.24 184.198 40.6293 183.974 40.96C183.76 41.2907 183.462 41.5467 183.078 41.728C182.704 41.9093 182.272 42 181.782 42H177.622ZM178.662 41.216H181.75C182.027 41.216 182.278 41.1467 182.502 41.008C182.736 40.8587 182.918 40.6667 183.046 40.432C183.184 40.1973 183.254 39.952 183.254 39.696C183.254 39.4187 183.19 39.168 183.062 38.944C182.934 38.7093 182.763 38.5227 182.55 38.384C182.336 38.2453 182.091 38.176 181.814 38.176H178.662V41.216ZM178.662 37.424H181.494C181.771 37.424 182.016 37.3493 182.23 37.2C182.443 37.0507 182.608 36.8587 182.726 36.624C182.843 36.3893 182.902 36.144 182.902 35.888C182.902 35.504 182.774 35.168 182.518 34.88C182.272 34.592 181.952 34.448 181.558 34.448H178.662V37.424ZM186.184 42V33.68H187.272V40.528L192.344 33.664H193.32V42H192.232V35.264L187.24 42H186.184ZM197.78 42V34.64H194.804V33.664H201.844V34.64H198.868V42H197.78ZM203.309 42V33.68H204.397V40.528L209.469 33.664H210.445V42H209.357V35.264L204.365 42H203.309ZM212.201 42L214.681 38.592C214.116 38.5067 213.657 38.2613 213.305 37.856C212.964 37.44 212.793 36.8747 212.793 36.16C212.793 35.68 212.905 35.2533 213.129 34.88C213.353 34.5067 213.668 34.208 214.073 33.984C214.489 33.76 214.974 33.648 215.529 33.648H218.713V42H217.625V38.768H215.769L213.417 42H212.201ZM215.513 37.936H217.625V34.512H215.705C215.15 34.512 214.708 34.672 214.377 34.992C214.046 35.3013 213.881 35.696 213.881 36.176C213.881 36.6667 214.014 37.0827 214.281 37.424C214.558 37.7653 214.969 37.936 215.513 37.936Z" fill="white"/>
<path d="M41.9377 40.7074C41.4184 34.3748 33.3551 37.2719 34.1974 42.5738C35.1994 48.1268 42.224 45.461 41.9377 40.7074ZM40.1 41.0807C40.0201 43.9877 35.6289 45.1637 35.2793 41.7711C34.8998 38.3125 40.2565 37.0241 40.1 41.0807Z" fill="white"/>
<path d="M46.1687 5.0045C46.192 4.91531 46.2053 4.82281 46.2186 4.73362C46.2219 4.69728 46.2319 4.66095 46.2353 4.62461C46.2419 4.56515 46.2419 4.50569 46.2453 4.44623C46.2453 4.38677 46.2453 4.32731 46.2386 4.26784C46.2386 4.25463 46.2386 4.24142 46.2353 4.2282C46.2319 4.21829 46.2319 4.20838 46.2319 4.19847C46.2219 4.09277 46.2053 3.99036 46.1787 3.88796C46.1687 3.84832 46.1554 3.81198 46.1454 3.77564C46.1221 3.69636 46.0921 3.62038 46.0621 3.54771C46.0455 3.50807 46.0255 3.47173 46.0089 3.43539C45.9689 3.36272 45.9256 3.29665 45.879 3.23058C45.8591 3.20085 45.8391 3.17443 45.8191 3.1447C45.7825 3.10505 45.7425 3.06872 45.7059 3.02908C45.6593 2.98283 45.6194 2.92998 45.5661 2.88703C45.4829 2.82096 45.393 2.76811 45.3031 2.71856C45.2731 2.70535 45.2432 2.69213 45.2132 2.67892C45.1533 2.65249 45.0934 2.63267 45.0334 2.61285C44.9535 2.58973 44.8736 2.57321 44.7904 2.5633C44.7538 2.55669 44.7138 2.55009 44.6772 2.54678C44.6006 2.54018 44.5207 2.54348 44.4442 2.54678C44.4475 2.55339 44.4541 2.56 44.4575 2.56991C44.4775 2.60624 44.4941 2.64258 44.5107 2.68222C44.544 2.7549 44.5707 2.83087 44.5973 2.91016C44.6073 2.94649 44.6206 2.98283 44.6306 3.02247C44.6539 3.12157 44.6739 3.22728 44.6839 3.33299C44.6839 3.3495 44.6905 3.36602 44.6905 3.38254C44.7005 3.50476 44.6972 3.63029 44.6872 3.75582C44.6839 3.79216 44.6772 3.82849 44.6705 3.86483C44.6572 3.95402 44.6439 4.04652 44.6206 4.13571C44.6106 4.17865 44.5973 4.2249 44.584 4.26784C44.5574 4.35043 44.5274 4.43632 44.4941 4.5156C44.4775 4.55854 44.4575 4.60149 44.4375 4.64443C44.3809 4.76005 44.3177 4.87567 44.2411 4.98468C44.1545 5.11021 44.058 5.21922 43.9548 5.32162C43.9381 5.33814 43.9248 5.35466 43.9082 5.36787C43.8116 5.46037 43.7084 5.53965 43.6019 5.61232C43.5653 5.63875 43.5253 5.65857 43.4887 5.67839C43.4055 5.72794 43.3189 5.77088 43.2323 5.80722C43.199 5.82043 43.1691 5.83365 43.1358 5.84356C43.0159 5.8865 42.8961 5.91953 42.7762 5.93605C42.733 5.94266 42.6863 5.94596 42.6431 5.94927C42.6863 6.02855 42.733 6.10452 42.7896 6.1739C42.7995 6.18711 42.8129 6.20363 42.8228 6.21684C42.8994 6.30933 42.9826 6.39522 43.0759 6.4712C43.1624 6.54057 43.2556 6.59673 43.3522 6.64628C43.3588 6.64958 43.3622 6.65289 43.3688 6.65289C43.3855 6.65949 43.4055 6.6661 43.4221 6.67271C43.4854 6.70244 43.5486 6.72556 43.6152 6.74538C43.6252 6.74868 43.6352 6.75199 43.6452 6.75529C43.6518 6.75859 43.6618 6.7619 43.6685 6.7619C43.6851 6.7652 43.7017 6.7652 43.7151 6.7685C43.785 6.78502 43.8549 6.79493 43.9281 6.80154C43.9581 6.80484 43.9914 6.80815 44.0214 6.81145C44.1246 6.81475 44.2278 6.81145 44.331 6.79823C44.4508 6.78172 44.574 6.74538 44.6905 6.70574C44.7238 6.69583 44.7538 6.68262 44.7871 6.6661C44.8004 6.65949 44.8137 6.65619 44.8303 6.64958C44.8603 6.63637 44.8903 6.62316 44.9202 6.60994C44.9635 6.58682 45.0035 6.56039 45.0434 6.53727C45.0834 6.51414 45.12 6.49432 45.1566 6.4712C45.1599 6.4679 45.1666 6.46459 45.1699 6.46459C45.1966 6.44477 45.2265 6.42495 45.2532 6.40513C45.2998 6.3721 45.343 6.33576 45.3863 6.29612C45.4096 6.2763 45.4329 6.25648 45.4529 6.23666C45.4562 6.23336 45.4596 6.23005 45.4629 6.22675C45.4795 6.21354 45.4929 6.19702 45.5095 6.1805C45.5328 6.15407 45.5594 6.13095 45.5827 6.10452C45.5994 6.0847 45.6194 6.06819 45.636 6.04837C45.6926 5.9823 45.7459 5.91623 45.7958 5.84356C45.8058 5.83034 45.8158 5.81383 45.8224 5.80061C45.8657 5.73455 45.9057 5.66848 45.9423 5.60241C45.9556 5.57929 45.9656 5.55947 45.9756 5.53634C45.9789 5.52643 45.9856 5.51652 45.9889 5.50661C46.0089 5.46367 46.0289 5.42072 46.0455 5.37778C46.0621 5.33814 46.0855 5.2952 46.0988 5.25556C46.1054 5.23904 46.1088 5.21922 46.1154 5.2027C46.1221 5.17958 46.1287 5.15315 46.1354 5.13003C46.1454 5.09369 46.1554 5.05075 46.1687 5.0045Z" fill="white"/>
<path d="M32.2901 28.5112C31.7374 22.0927 23.5676 25.1715 24.563 30.523C25.7382 35.9339 32.5764 33.169 32.2901 28.5112ZM30.4523 28.8845C30.4457 31.6725 26.1044 32.9542 25.645 29.7335C25.0724 26.2187 30.5922 24.7222 30.4523 28.8845Z" fill="white"/>
<path d="M51.1224 23.3582C51.189 21.2936 50.3867 19.163 48.7587 17.8878L32.5788 5.21608C32.4989 5.15331 32.419 5.09385 32.3358 5.03439C31.3004 4.31425 30.0553 3.91124 28.8002 3.9641C26.4897 4.05329 24.369 5.47044 23.0707 7.37649L9.33441 27.352C9.02812 27.8013 8.75845 28.277 8.5354 28.7725C7.15711 31.7092 7.5999 35.6435 10.2533 37.6751L14.0718 40.6647C14.6012 41.0677 15.1938 41.3914 15.8263 41.5764C18.1068 42.2932 20.6037 41.3551 22.2617 39.6902C22.7144 39.2739 24.8018 36.5982 25.2413 36.0697C25.4144 35.8648 25.6474 35.7096 25.9104 35.6732C28.3175 36.1324 30.7511 35.1348 32.2892 33.1825C34.7261 30.368 34.9625 25.2709 31.6533 23.0576C29.0299 21.2573 25.441 22.5423 23.6466 24.967C22.2583 26.7409 21.6091 29.1557 22.0952 31.3888C22.2117 32.2476 23.034 33.1263 22.3582 33.9291C22.2916 33.9951 20.0844 36.7898 20.091 36.7303C19.1755 37.7279 17.5508 38.1111 16.4456 37.2192L12.5937 34.2032C11.8646 33.6351 11.4318 32.7101 11.4551 31.7753C11.4484 30.9857 11.7181 30.2095 12.1542 29.562L25.8838 9.58975C26.7061 8.35099 28.4173 7.59782 29.7723 8.37741C29.8822 8.44018 29.9854 8.50624 30.0853 8.58553L46.385 21.3432C46.4283 21.3795 46.4682 21.4159 46.5115 21.4555C47.7533 22.572 47.6667 24.6234 46.7445 25.925L41.035 34.2297C40.9517 34.3519 40.8452 34.4543 40.7254 34.5303C40.3791 34.778 39.9929 34.6261 39.6267 34.5303C39.2372 34.4444 38.841 34.4047 38.4415 34.4081C35.8647 34.4378 33.5676 36.2348 32.4357 38.534C29.183 45.2002 35.7848 51.3115 41.4378 45.9534C43.3121 44.0737 44.2676 41.1602 43.5652 38.5406C43.4153 38.012 43.1224 37.4373 43.5119 36.9384L49.5644 28.1349C50.5165 26.731 51.0858 25.0595 51.1224 23.3582ZM50.0071 23.7282C49.9705 25.043 49.5377 26.3511 48.792 27.4379L42.7395 36.2414C41.9105 37.3249 42.2335 38.6232 42.5997 39.8124C42.9326 41.7548 42.1502 43.8227 40.7353 45.1374C39.64 46.1879 38.082 46.7594 36.5938 46.4423C36.4007 46.3993 36.2143 46.3432 36.0345 46.2705C32.945 45.0747 32.7453 40.6812 34.7062 38.3358C35.402 37.424 36.3541 36.7336 37.4494 36.4033C38.6846 36.0102 39.9197 36.7667 41.1082 36.3901C41.6775 36.2811 42.4332 35.4949 42.5231 35.2967C42.6896 35.0522 45.9455 30.3218 47.4603 28.1151C48.0196 27.2727 48.1261 27.1736 48.3226 26.8565C49.1216 25.6277 49.4645 24.0784 49.1615 22.6282C49.0317 22.0237 48.7953 21.4357 48.4358 20.9369C47.9264 20.2894 47.6234 20.1143 47.6134 20.0978C46.6613 19.3545 37.0499 11.8294 33.0849 8.72427C31.7798 7.72995 31.6933 7.59781 31.1639 7.23444C30.8776 7.04945 30.5713 6.89419 30.2484 6.79509C28.5405 6.25664 26.5563 7.08249 25.4444 8.46991C25.0149 9.03809 25.1248 8.88613 25.0548 8.99184C24.2525 10.1579 16.1526 21.9378 12.8134 26.7938C11.7414 28.386 11.6016 28.5115 11.2087 29.1458C11.1089 29.3076 11.019 29.4761 10.9391 29.6479C9.91701 31.6332 10.17 34.3783 12.0011 35.7757C12.0011 35.7757 12.0111 35.7823 12.0277 35.7988C12.334 36.0399 15.0872 38.197 15.7231 38.6925C15.8563 38.8082 15.783 38.7454 16.0893 38.9601C17.1447 39.6769 18.5363 39.7232 19.6849 39.2244C20.4439 38.9469 21.4061 38.1045 21.7257 37.652C22.0752 37.206 23.893 34.9828 23.9729 34.8243C24.3923 34.1636 24.5688 33.3311 24.4023 32.5582C24.2525 31.9404 23.9063 31.3789 23.8364 30.7347C23.56 29.0136 24.1293 27.2199 25.2413 25.9217C28.3874 22.2351 33.5976 24.3427 32.975 29.3208C32.6354 31.7653 30.8776 34.1768 28.5805 34.3783C27.4685 34.4576 26.5696 34.2495 26.0137 34.4114C25.4876 34.4774 24.6454 35.0588 24.5422 35.2901C24.0361 35.9078 22.1351 38.3259 21.8888 38.5571C20.3873 40.2286 17.7739 41.0115 15.7897 39.7661C15.2104 39.3862 11.7148 36.6378 11.1921 36.1754C8.2957 33.4005 10.0835 29.2217 10.959 28.2241C12.1509 26.4898 20.5105 14.3367 23.4935 9.99607C24.4423 8.66811 24.1959 8.91586 24.8351 8.0735C25.9371 6.67948 27.6516 5.70828 29.4327 5.80738C30.2018 5.86354 30.9542 6.11129 31.6034 6.53082C32.2293 6.95366 31.9263 6.76536 32.1527 6.92723C33.541 8.01404 43.149 15.5391 46.7812 18.38C47.9597 19.3512 47.7899 19.1035 48.4957 19.7543C49.5477 20.7684 50.0504 22.2681 50.0071 23.7282Z" fill="white"/>
<path d="M38.4062 38.7452C38.8057 38.8046 39.1486 38.9797 39.4082 39.2605C39.7844 39.6701 39.9676 40.2944 39.9376 41.074C39.8943 42.6299 38.536 43.6738 37.2909 43.6738C36.898 43.6738 36.5485 43.5714 36.2622 43.3732C36.948 43.2345 37.6271 42.6531 38.0932 41.7909C38.6625 40.747 38.7724 39.5875 38.4062 38.7452ZM38.1365 38.5635C39.1519 40.2152 37.6404 43.2477 35.9492 43.2477C35.9259 43.2477 35.8993 43.2477 35.876 43.2444C36.2522 43.6507 36.7615 43.8357 37.2975 43.8357C38.5993 43.8357 40.0541 42.7423 40.1007 41.0807C40.164 39.3365 39.2118 38.5833 38.1365 38.5635Z" fill="white"/>
<path d="M29.2086 26.6745C29.9411 26.9851 30.3339 27.7713 30.2939 28.8845C30.2906 30.4074 28.8924 31.4677 27.6373 31.4677C27.331 31.4677 26.9281 31.405 26.5686 31.144C26.6119 31.1407 26.6518 31.1341 26.6951 31.1308C26.8482 31.1077 27.0114 31.0647 27.2011 30.9987C27.2444 30.9821 27.2844 30.9656 27.3276 30.9491L27.3376 30.9458C27.4475 30.8996 27.5574 30.8434 27.6905 30.7707L27.7338 30.7476C27.7737 30.7245 27.817 30.7014 27.8603 30.6716C28.0234 30.5626 28.1633 30.4536 28.2898 30.3347C28.3031 30.3215 28.3131 30.3116 28.3264 30.2984C28.3331 30.2917 28.3397 30.2851 28.3464 30.2785C28.5062 30.1233 28.636 29.968 28.7492 29.8094C28.8491 29.6707 28.9423 29.5088 29.0355 29.3239C29.0555 29.2809 29.0755 29.2413 29.0921 29.1983L29.1121 29.1488C29.1687 29.0199 29.212 28.9043 29.2453 28.7986C29.2652 28.7392 29.2819 28.6764 29.2985 28.6169C29.3285 28.5013 29.3518 28.3791 29.3718 28.2503L29.3784 28.2007C29.3851 28.1611 29.3917 28.1247 29.3951 28.0851C29.4117 27.9034 29.4184 27.7415 29.4084 27.5863C29.4084 27.5797 29.4084 27.5698 29.4084 27.5632C29.3984 27.4046 29.3751 27.2394 29.3318 27.0577C29.3252 27.0214 29.3118 26.9884 29.3018 26.9553C29.2985 26.9421 29.2919 26.9256 29.2885 26.9091C29.2586 26.8232 29.2353 26.7472 29.2086 26.6745ZM28.9057 26.4136C28.919 26.44 28.939 26.4631 28.9523 26.4896C28.9756 26.5391 28.9989 26.5854 29.0222 26.6382C29.0655 26.7406 29.1021 26.843 29.1321 26.952C29.1454 26.9983 29.162 27.0445 29.172 27.0908C29.2086 27.246 29.2353 27.4046 29.2453 27.5698C29.2453 27.5764 29.2453 27.5797 29.2453 27.5863C29.2552 27.7448 29.2486 27.9067 29.2319 28.0686C29.2253 28.1214 29.2153 28.1743 29.2086 28.2271C29.192 28.3427 29.1687 28.4617 29.1387 28.5773C29.1221 28.6368 29.1088 28.6929 29.0888 28.7524C29.0522 28.8647 29.0089 28.977 28.9589 29.0893C28.9356 29.1455 28.9123 29.2016 28.8857 29.2578C28.8058 29.4163 28.7159 29.5716 28.6127 29.7236C28.4962 29.8887 28.3663 30.0341 28.2298 30.1695C28.2132 30.186 28.1966 30.2059 28.1766 30.2224C28.0467 30.3446 27.9102 30.4503 27.7671 30.5428C27.7138 30.5758 27.6606 30.6056 27.6073 30.6353C27.4974 30.6981 27.3876 30.7575 27.2744 30.8038C27.2311 30.8203 27.1878 30.8401 27.1445 30.8533C26.9881 30.9095 26.8283 30.9524 26.6685 30.9755C26.5653 30.9888 26.462 30.9954 26.3588 30.9954C26.3256 30.9954 26.2923 30.9954 26.259 30.9921C26.2257 30.9921 26.1891 30.9855 26.1558 30.9822C26.5353 31.4281 27.068 31.6296 27.6306 31.6296C28.9556 31.6296 30.4404 30.5164 30.4438 28.8845C30.5004 27.3649 29.7946 26.6019 28.9057 26.4136Z" fill="white"/>
<path d="M14.7018 10.7855C14.6518 8.91581 12.2881 8.69778 11.4292 10.1348L5.63638 18.7764C5.41999 19.1266 5.00384 19.0572 4.6576 19.1067C4.07832 19.186 3.53233 19.4206 3.03961 19.741C0.948882 21.0954 0.0599877 24.4384 1.80781 26.4171C2.91976 27.6096 4.3147 27.6162 5.58312 27.1141C6.31887 26.8234 7.04796 26.3411 7.58729 25.5781C8.05338 24.9207 8.31305 24.1279 8.3863 23.3318C8.41626 23.0675 8.42625 22.7999 8.39961 22.5323C8.43623 22.0335 8.09333 21.4918 8.4096 21.0425L14.249 12.3348C14.249 12.3315 14.2523 12.3315 14.2523 12.3282L14.2557 12.3249C14.5653 11.8822 14.7384 11.324 14.7018 10.7855ZM13.5399 10.9837L7.50406 20.253C7.48076 20.286 7.46411 20.3257 7.44414 20.362C7.20776 20.8641 7.12453 21.5512 7.16781 22.1458C7.17114 22.202 7.19777 22.3672 7.20443 22.3936C7.86694 25.218 4.91728 26.6913 3.48573 25.6177C2.14739 24.5177 2.71335 21.9873 4.21482 21.2242C5.10038 20.9038 5.99594 20.9104 6.77164 20.3158C6.82823 20.2728 6.99136 20.1242 7.02466 20.0977C7.06128 20.0614 7.09457 20.0284 7.13119 19.9887C7.13452 19.9854 13.2835 10.8186 13.2835 10.8186C13.4001 10.6435 13.6564 10.8152 13.5399 10.9837Z" fill="white"/>
<path d="M54.4374 12.9755C54.7903 12.546 54.9734 12.0307 54.9967 11.5352C55 11.479 55 11.4262 55 11.3733C55 11.3634 55 11.3568 55 11.3502C54.9967 11.2841 54.9933 11.2181 54.9833 11.1553C54.9234 10.6895 54.7104 10.2667 54.3541 9.98592C52.4632 8.52582 49.6533 6.31586 48.4248 5.29842C48.2118 5.12334 48.1152 4.83925 48.1252 4.56177C48.255 0.789306 44.4431 -0.935059 41.8097 1.94549C39.0099 4.93835 41.2105 10.379 45.4952 8.4994C45.6316 8.48288 45.7681 8.51261 45.878 8.5985L51.9105 13.3785C52.0037 13.4512 52.1003 13.5106 52.1968 13.5602C52.1968 13.5602 52.2001 13.5602 52.2001 13.5635C52.5098 13.722 52.8327 13.765 53.1456 13.7154C53.1589 13.7154 53.1723 13.7154 53.1856 13.7121C53.2222 13.7055 53.2588 13.6923 53.2954 13.6857C53.2988 13.6857 53.3054 13.6824 53.3088 13.6824C53.7183 13.5899 54.1211 13.3587 54.4374 12.9755ZM47.2896 7.27384C47.233 7.2309 47.1597 7.18795 47.0965 7.15822C45.8214 6.59335 44.3666 8.09639 43.188 7.02609C40.0086 3.84163 46.6937 -0.449462 46.95 4.76658C46.9533 4.80952 46.95 4.85577 46.9467 4.89871C46.9001 5.51314 46.9933 6.29604 47.3728 6.77173C47.4261 6.83449 47.4893 6.90056 47.5493 6.95011L53.7549 11.8953C53.918 12.0208 53.7349 12.2752 53.5784 12.1463L47.2896 7.27384Z" fill="white"/>
<path d="M6.18089 23.6853C6.21418 23.5664 6.23748 23.4474 6.2508 23.3285C6.26412 23.2162 6.26412 23.1006 6.26079 22.9916C6.26079 22.9784 6.25746 22.9652 6.25746 22.9519C6.2508 22.8495 6.23415 22.7471 6.21085 22.6513C6.20752 22.6315 6.20086 22.615 6.1942 22.5952C6.1709 22.5126 6.14427 22.4366 6.11097 22.3606C6.10099 22.3375 6.091 22.3144 6.08101 22.2913C6.03773 22.2021 5.98779 22.1195 5.92787 22.0402C5.92454 22.0369 5.92121 22.0303 5.92121 22.027C5.85463 21.9411 5.77805 21.8585 5.6915 21.7891C5.61825 21.7297 5.54168 21.6801 5.46178 21.6372C5.43848 21.624 5.41184 21.6141 5.38521 21.6042C5.33194 21.581 5.27868 21.5612 5.22541 21.5447C5.15883 21.5249 5.08891 21.5117 5.019 21.5018C4.98571 21.4984 4.95242 21.4885 4.91912 21.4852C4.89249 21.4819 4.86586 21.4852 4.83589 21.4819C4.85254 21.5117 4.86586 21.5414 4.87917 21.5744C4.90914 21.6438 4.93577 21.7165 4.95574 21.7925C4.96573 21.8255 4.97572 21.8585 4.98238 21.8916C5.00568 22.0006 5.02566 22.1129 5.03232 22.2252C5.03232 22.2285 5.03232 22.2318 5.03232 22.2351C5.03897 22.3441 5.03565 22.4597 5.02233 22.5721C5.019 22.6084 5.01234 22.6447 5.00568 22.6811C4.99237 22.7636 4.97905 22.8429 4.95574 22.9255C4.94576 22.9652 4.93244 23.0081 4.92245 23.0477C4.89582 23.127 4.86586 23.2063 4.83256 23.2823C4.81592 23.3219 4.79927 23.3616 4.78263 23.3979C4.72603 23.5102 4.6661 23.6192 4.58953 23.7216C4.5063 23.8372 4.41642 23.9397 4.31987 24.0354C4.30655 24.0487 4.29656 24.0619 4.28325 24.0718C4.19336 24.1577 4.09681 24.2303 3.99694 24.2964C3.96032 24.3195 3.9237 24.3394 3.88707 24.3625C3.8105 24.4054 3.73393 24.4484 3.65403 24.4781C3.62407 24.4913 3.59411 24.5045 3.56414 24.5144C3.45428 24.5541 3.34442 24.5838 3.23122 24.6003C3.22124 24.6003 3.21458 24.6003 3.20459 24.6036C3.21458 24.6168 3.22457 24.6334 3.23455 24.6466C3.24454 24.6598 3.25453 24.6697 3.26119 24.6829C3.32444 24.7622 3.39435 24.8382 3.47758 24.9042C3.55415 24.967 3.63406 25.0166 3.71729 25.0595C3.72394 25.0628 3.7306 25.0661 3.73726 25.0694C3.82049 25.109 3.90372 25.1421 3.99028 25.1652C3.99361 25.1652 3.99694 25.1685 4.00027 25.1685C4.09015 25.1916 4.18337 25.2048 4.27659 25.2115H4.27992C4.37647 25.2148 4.47301 25.2115 4.56956 25.1982C4.68608 25.1817 4.8026 25.152 4.91912 25.109H4.92245C5.02899 25.0694 5.13552 25.0132 5.23873 24.9505C5.24871 24.9439 5.2587 24.9406 5.26869 24.934C5.37522 24.8646 5.4751 24.7886 5.56832 24.6961C5.56832 24.6961 5.56832 24.6961 5.57164 24.6928C5.66819 24.6003 5.76141 24.4913 5.84464 24.3757C5.92121 24.27 5.98779 24.1577 6.04106 24.0421C6.04106 24.0421 6.04106 24.0387 6.04439 24.0387C6.09766 23.9264 6.14427 23.8075 6.17756 23.6919C6.18089 23.6919 6.18089 23.6886 6.18089 23.6853Z" fill="white"/>
<path d="M33.1981 46.3636C31.3338 45.2272 30.3616 42.9809 30.6646 40.434C30.6812 40.2821 30.7079 40.1202 30.7412 39.9385C30.7478 39.9055 30.7545 39.8691 30.7611 39.8361L30.7711 39.7832C30.7978 39.661 30.8244 39.5487 30.851 39.443C30.8644 39.3868 30.881 39.3307 30.8943 39.2745C30.9243 39.1655 30.9576 39.0565 30.9975 38.9343L31.0142 38.8814C31.0242 38.8517 31.0341 38.822 31.0441 38.7922C31.0475 38.7823 31.0508 38.7724 31.0541 38.7625C31.0574 38.7559 31.0574 38.746 31.0608 38.7394C31.0741 38.703 31.0907 38.6667 31.1041 38.6271C31.114 38.6006 31.1274 38.5709 31.1373 38.5445L31.1573 38.4949C31.1873 38.4189 31.2172 38.343 31.2472 38.2703C31.2738 38.2108 31.3005 38.1547 31.3271 38.0952L31.3537 38.0358L31.3737 37.9961C31.4103 37.9201 31.4436 37.8442 31.4836 37.7715C31.4902 37.7616 31.4936 37.7484 31.5002 37.7385C31.5036 37.7318 31.5069 37.7219 31.5102 37.7153C31.5402 37.6592 31.5735 37.603 31.6068 37.5469L31.6467 37.4808C31.6567 37.461 31.67 37.4411 31.68 37.4213C31.6967 37.3916 31.7133 37.3619 31.7299 37.3321C31.8165 37.1835 31.9097 37.0447 31.9963 36.9126L32.0029 36.906L32.0063 36.8994C32.1428 36.7012 32.2992 36.4964 32.4923 36.2684C32.5056 36.2552 32.5156 36.2387 32.5256 36.2255C32.5323 36.2156 32.5389 36.2057 32.5456 36.1991C32.5489 36.1958 32.5556 36.1892 32.5589 36.1859C32.5689 36.176 32.5789 36.166 32.5889 36.1561C32.7587 35.9645 32.9351 35.7795 33.1182 35.6078C33.1282 35.5979 33.1382 35.5879 33.1482 35.578C33.1515 35.5747 33.1548 35.5681 33.1582 35.5648C33.1915 35.5351 33.2248 35.5054 33.258 35.4789C33.278 35.4624 33.298 35.4459 33.318 35.4261L33.3612 35.3864C33.3945 35.3567 33.4278 35.327 33.4645 35.2973C33.551 35.2246 33.6442 35.1552 33.7308 35.0891C33.7474 35.0759 33.7674 35.0627 33.7841 35.0495C33.8074 35.0297 33.8307 35.0132 33.8573 34.9933C33.864 34.99 33.8673 34.9834 33.8806 34.9768C33.9039 34.9603 33.9305 34.9438 33.9572 34.9273C33.9805 34.9141 34.0005 34.9008 34.0238 34.8843L34.0371 34.8777C34.1303 34.815 34.2202 34.7555 34.3134 34.6993C34.3533 34.6762 34.3966 34.6531 34.4399 34.63L34.5098 34.5903C34.603 34.5375 34.6896 34.4912 34.7828 34.445C34.7928 34.4384 34.8061 34.4318 34.8161 34.4285C34.8228 34.4252 34.8294 34.4219 34.8361 34.4186C34.8893 34.3921 34.9459 34.369 34.9992 34.3459L35.0658 34.3161C35.0858 34.3062 35.1057 34.2996 35.1257 34.2897C35.1524 34.2765 35.1823 34.2633 35.2089 34.2534C35.3688 34.1906 35.5152 34.1378 35.6584 34.0915C35.968 33.9957 36.2809 33.923 36.5906 33.8801C36.7737 33.8537 36.9568 33.8372 37.1565 33.8306C37.1698 33.8306 37.1832 33.8306 37.1965 33.8306C37.2198 33.8306 37.2398 33.8306 37.2631 33.8306C37.2864 33.8306 37.3097 33.8306 37.3396 33.8306H37.4095C37.4994 33.8306 37.6026 33.8306 37.7058 33.8372C37.7525 33.8405 37.8024 33.8471 37.849 33.8504L37.9189 33.857C38.0288 33.8702 38.1353 33.8801 38.2418 33.8999C38.3018 33.9098 38.3617 33.923 38.4183 33.9363L38.4582 33.9462C38.4849 33.9528 38.5148 33.9561 38.5415 33.9627C38.5781 33.9693 38.6147 33.9759 38.6513 33.9858C38.7179 34.0023 38.7812 34.0221 38.8444 34.042C38.8977 34.0585 38.951 34.0651 39.0009 34.0717L39.0142 34.075C39.0309 34.0783 39.0475 34.0816 39.0642 34.0816C39.0875 34.0816 39.1108 34.0849 39.1341 34.0849C39.1773 34.0849 39.224 34.0816 39.2639 34.075C39.3471 34.0618 39.437 34.0354 39.5336 33.9924C39.5735 33.9759 39.6101 33.9561 39.6434 33.9363L39.6567 33.9297C39.6734 33.9197 39.6867 33.9131 39.7 33.9032C39.7566 33.8636 39.8132 33.8206 39.8598 33.7744C39.8665 33.7678 39.8731 33.7612 39.8765 33.7546L39.8831 33.748C39.9397 33.6885 39.9897 33.6323 40.0296 33.5762L45.7392 25.2715C45.7425 25.2682 45.7458 25.2616 45.7458 25.2616C45.8191 25.1526 45.8923 25.0303 45.9689 24.8916C45.9822 24.8652 45.9955 24.8421 46.0088 24.8156L46.0222 24.7925C46.1087 24.6207 46.1786 24.4655 46.2319 24.3201C46.2352 24.3135 46.2352 24.3102 46.2352 24.3036C46.2852 24.1616 46.3284 24.0096 46.3684 23.8345L46.3751 23.8081C46.3817 23.785 46.385 23.7618 46.3917 23.7387C46.425 23.5802 46.445 23.4216 46.4583 23.2696C46.4583 23.2498 46.4616 23.23 46.4616 23.2135V23.1838C46.4716 23.0318 46.4716 22.8831 46.4616 22.7444V22.7279C46.4616 22.7147 46.4616 22.7048 46.4616 22.6916C46.4516 22.5462 46.4317 22.3975 46.3984 22.2357C46.3917 22.2027 46.385 22.1696 46.3784 22.1399C46.3418 21.9813 46.2985 21.8393 46.2485 21.7071C46.2452 21.6939 46.2386 21.684 46.2319 21.6708L46.2252 21.6543C46.1753 21.5288 46.1121 21.4032 46.0421 21.281L46.0288 21.2579C46.0188 21.2414 46.0122 21.2282 46.0022 21.2116C45.9989 21.205 45.9922 21.1951 45.9889 21.1885L46.5715 21.5122C46.5515 21.4924 46.5349 21.466 46.5116 21.4462C46.4683 21.4098 46.4283 21.3702 46.385 21.3339L45.2764 20.4717C46.4849 21.7501 46.6647 23.7387 45.616 25.1889C45.4229 25.3276 40.792 32.5488 39.5402 33.7744C39.3838 33.9263 39.1108 33.89 39.0442 33.8735C30.8976 31.9047 26.9725 44.19 34.3134 47.2687C33.9072 47.021 33.531 46.717 33.1981 46.3636Z" fill="white"/>
<path d="M17.5337 37.6783C17.5104 37.6651 17.4838 37.6518 17.4604 37.6386L16.9777 37.3711H17.0077C17.1508 37.3711 17.2674 37.3612 17.3805 37.3446C17.5004 37.3281 17.6269 37.2984 17.7767 37.2554C17.8067 37.2455 17.84 37.2356 17.8699 37.2257C18.0131 37.1795 18.1363 37.1299 18.2528 37.0738C18.2595 37.0705 18.2661 37.0672 18.2794 37.0605C18.4226 36.9912 18.5691 36.9053 18.7122 36.8062L18.7289 36.7963C18.7389 36.7897 18.7488 36.7831 18.7588 36.7765C18.8654 36.7005 18.9719 36.6146 19.0784 36.5188C19.0984 36.5023 19.1184 36.4824 19.135 36.4626L19.1583 36.4395C19.2283 36.3734 19.2982 36.3008 19.3614 36.2314L19.3914 36.1984C19.4313 36.1554 19.468 36.1125 19.5046 36.0662L21.5487 33.5193C21.6219 33.4301 21.6819 33.331 21.7351 33.2121L21.7385 33.2055C21.7451 33.1923 21.7484 33.1824 21.7551 33.1692C21.7984 33.0602 21.8284 32.9511 21.845 32.8421C21.8483 32.8289 21.8483 32.8124 21.8483 32.7992V32.7893C21.8583 32.6968 21.8583 32.6043 21.8483 32.5118C21.845 32.4821 21.8417 32.4523 21.8383 32.4259C21.8184 32.3037 21.7884 32.2013 21.7451 32.1121C21.2124 30.9658 21.0393 29.6246 21.2491 28.2306C21.279 28.0324 21.3223 27.821 21.3822 27.5732C21.3956 27.5237 21.4089 27.4741 21.4222 27.4246L21.4322 27.3882C21.4755 27.2231 21.5287 27.0579 21.582 26.896C21.5886 26.8762 21.5953 26.8564 21.602 26.8333C21.6053 26.8168 21.612 26.8002 21.6186 26.7837C21.6219 26.7738 21.6253 26.7672 21.6286 26.7573C21.6353 26.7441 21.6386 26.7342 21.6419 26.721C21.6719 26.6351 21.7052 26.5558 21.7418 26.4666L21.7518 26.4402L21.7784 26.3774C21.8017 26.3213 21.825 26.2651 21.8483 26.2089C21.8849 26.1297 21.9216 26.0537 21.9615 25.9744L21.9815 25.9315C21.9948 25.905 22.0081 25.8786 22.0181 25.8522C22.0348 25.8191 22.0514 25.7828 22.0681 25.7498C22.0714 25.7432 22.0747 25.7366 22.078 25.7333C22.0847 25.7233 22.088 25.7167 22.0914 25.7068C22.1113 25.6705 22.1313 25.6375 22.1513 25.6011L22.1846 25.545C22.2345 25.4558 22.2911 25.36 22.3477 25.2642C22.3777 25.2146 22.4076 25.1684 22.4409 25.1221L22.4609 25.0957C22.4742 25.0759 22.4875 25.0528 22.5008 25.0296C22.5208 24.9999 22.5408 24.9669 22.5608 24.9371C22.5641 24.9305 22.5708 24.9239 22.5741 24.9173C22.5841 24.9041 22.5941 24.8942 22.6007 24.881C22.7505 24.663 22.9103 24.4581 23.0701 24.2699C23.0768 24.2599 23.0868 24.25 23.0934 24.2401C23.0968 24.2368 23.0968 24.2335 23.1001 24.2302C23.1068 24.2236 23.1134 24.2137 23.1234 24.2071C23.1367 24.1939 23.15 24.1807 23.16 24.1674C23.3431 23.9626 23.5163 23.7843 23.6894 23.6224C23.696 23.6158 23.7027 23.6092 23.716 23.596L23.726 23.5861C23.7426 23.5695 23.7626 23.5563 23.7793 23.5398C23.7959 23.5266 23.8092 23.5134 23.8259 23.5002C23.9124 23.4242 24.0056 23.3416 24.1022 23.2656C24.1322 23.2425 24.1654 23.2194 24.1954 23.193L24.2487 23.1533C24.2686 23.1368 24.292 23.1203 24.3119 23.1038C24.3519 23.0707 24.3952 23.041 24.4384 23.008C24.4451 23.0047 24.4518 22.9981 24.4584 22.9947C24.4684 22.9881 24.4784 22.9815 24.4917 22.9749C24.5816 22.9122 24.6781 22.8527 24.768 22.7965C24.788 22.7833 24.808 22.7701 24.8313 22.7569C24.8679 22.7338 24.9045 22.7074 24.9445 22.6875C25.051 22.6248 25.1609 22.5686 25.2707 22.5125C25.2907 22.5025 25.314 22.4893 25.334 22.4794C25.354 22.4662 25.3773 22.4563 25.3972 22.4464C25.4039 22.4431 25.4072 22.4431 25.4139 22.4398C25.5038 22.3968 25.597 22.3605 25.6935 22.3176L25.7268 22.3043C25.7501 22.2944 25.7734 22.2845 25.7967 22.2746C25.8267 22.2614 25.8567 22.2482 25.8833 22.2383C26.0464 22.1755 26.2096 22.1227 26.366 22.0764C26.6224 22.0037 26.8787 21.9509 27.1318 21.9145C27.2816 21.8914 27.4447 21.8782 27.6211 21.8683C27.6544 21.865 27.6844 21.865 27.7177 21.865H27.771C27.8209 21.865 27.8708 21.8617 27.9208 21.8617C27.9807 21.8617 28.044 21.8617 28.1039 21.865C28.1605 21.8683 28.2171 21.8716 28.2703 21.8749C28.3735 21.8815 28.4767 21.8947 28.5866 21.9079L28.6332 21.9145C28.6665 21.9178 28.7031 21.9245 28.7364 21.9278C28.8629 21.9476 28.9894 21.974 29.1159 22.007C29.1293 22.0103 29.1426 22.0136 29.1526 22.0136C29.1592 22.0136 29.1626 22.0169 29.1692 22.0169L29.1759 22.0203H29.1825C29.3224 22.0566 29.4655 22.1028 29.6187 22.159C29.642 22.1689 29.6686 22.1788 29.6919 22.1887L29.7385 22.2085C29.8484 22.2515 29.9449 22.2944 30.0381 22.3407C30.3278 22.41 30.6141 22.5125 30.8904 22.6413L30.3611 22.3275C30.3011 22.2944 30.2379 22.2614 30.1746 22.2284C30.1513 22.2185 30.128 22.2085 30.1047 22.1986C30.0048 22.1491 29.9016 22.1061 29.7951 22.0632C29.7518 22.0467 29.7119 22.0269 29.6686 22.0136C29.5221 21.9608 29.3723 21.9112 29.2192 21.8716C29.2158 21.8716 29.2125 21.8683 29.2092 21.8683C29.1892 21.8617 29.1692 21.8617 29.1492 21.8551C29.0194 21.822 28.8896 21.7956 28.7564 21.7725C28.7065 21.7626 28.6532 21.7593 28.5999 21.7494C28.4934 21.7362 28.3835 21.7229 28.2737 21.7163C28.2171 21.713 28.1605 21.7097 28.1005 21.7064C28.0373 21.7031 27.974 21.7031 27.9108 21.7031C27.8608 21.7031 27.8076 21.7031 27.7576 21.7064C27.7044 21.7064 27.6544 21.7064 27.6012 21.7097C27.4347 21.7196 27.2682 21.7329 27.0951 21.756C26.8355 21.7923 26.5724 21.8485 26.3094 21.9245C26.143 21.9707 25.9765 22.0269 25.8134 22.0896C25.7601 22.1094 25.7069 22.1359 25.6503 22.159C25.5437 22.2019 25.4339 22.2482 25.3273 22.2977C25.3207 22.301 25.3173 22.301 25.3107 22.3043C25.2674 22.3242 25.2241 22.3506 25.1808 22.3737C25.0677 22.4299 24.9545 22.4893 24.8446 22.5521C24.7847 22.5884 24.7247 22.6281 24.6648 22.6644C24.5683 22.7239 24.4751 22.7833 24.3818 22.8494C24.3652 22.8626 24.3452 22.8725 24.3286 22.8824C24.262 22.9287 24.1987 22.9815 24.1355 23.0278C24.0855 23.0641 24.0356 23.1005 23.9857 23.1401C23.8891 23.2161 23.7959 23.2987 23.7027 23.3812C23.6694 23.411 23.6328 23.4374 23.5995 23.4704C23.5961 23.4737 23.5895 23.477 23.5862 23.4803C23.5762 23.4903 23.5695 23.5002 23.5595 23.5068C23.3698 23.6819 23.19 23.8701 23.0202 24.065C23.0002 24.0882 22.9802 24.1047 22.9603 24.1278C22.9503 24.141 22.9403 24.1542 22.9303 24.1674C22.7605 24.3657 22.6007 24.5738 22.4509 24.7885C22.4376 24.8083 22.4209 24.8248 22.4076 24.8446C22.371 24.8975 22.341 24.9504 22.3044 25.0032C22.2678 25.0594 22.2279 25.1188 22.1912 25.1783C22.1346 25.2708 22.078 25.3666 22.0248 25.4624C21.9948 25.5185 21.9615 25.5714 21.9316 25.6275C21.9249 25.6441 21.9149 25.6573 21.9049 25.6738C21.875 25.7333 21.845 25.796 21.815 25.8555C21.7684 25.948 21.7218 26.0405 21.6785 26.1363C21.6419 26.2155 21.612 26.2948 21.5787 26.3741C21.5387 26.4699 21.4988 26.5624 21.4655 26.6615C21.4588 26.6846 21.4488 26.7044 21.4388 26.7243C21.4255 26.7606 21.4155 26.8002 21.4055 26.8366C21.3489 27.0017 21.2957 27.1702 21.2524 27.3387C21.2358 27.4015 21.2191 27.4642 21.2025 27.527C21.1492 27.7483 21.0993 27.9729 21.066 28.2009C20.8396 29.6973 21.0526 31.055 21.5753 32.1748C21.6153 32.2607 21.6386 32.3532 21.6552 32.4457C21.6586 32.4721 21.6619 32.4953 21.6652 32.5217C21.6719 32.601 21.6752 32.6836 21.6652 32.7661C21.6652 32.7827 21.6652 32.7992 21.6619 32.8124C21.6486 32.9115 21.6219 33.0073 21.582 33.0998C21.5753 33.113 21.572 33.1262 21.5653 33.1394C21.5221 33.2352 21.4688 33.3277 21.4022 33.4103L19.3581 35.9572C19.3148 36.0134 19.2682 36.0629 19.2216 36.1125C19.1583 36.1818 19.0951 36.2512 19.0285 36.314C19.0019 36.3404 18.9752 36.3635 18.9486 36.39C18.8487 36.4791 18.7488 36.5617 18.6423 36.6377C18.629 36.6476 18.6123 36.6575 18.599 36.6674C18.4659 36.7599 18.326 36.8425 18.1862 36.9119C18.1762 36.9152 18.1696 36.9218 18.1596 36.9251C18.0397 36.9813 17.9165 37.0275 17.7967 37.0671C17.7667 37.0771 17.7368 37.087 17.7101 37.0936C17.587 37.1299 17.4605 37.1596 17.3373 37.1795C17.2207 37.196 17.1009 37.2026 16.9844 37.2026C16.9711 37.2026 16.9577 37.2026 16.9478 37.2026C16.9344 37.2026 16.9211 37.2026 16.9078 37.2026C16.7946 37.1993 16.6781 37.1894 16.5682 37.1729C16.5516 37.1696 16.5349 37.1663 16.5183 37.1629C16.4417 37.1497 16.3651 37.1266 16.2886 37.1035C16.3685 37.1663 16.4217 37.2092 16.4217 37.2092C16.7713 37.4801 17.1475 37.6188 17.5337 37.6783Z" fill="white"/>
<path d="M32.4399 5.1132C32.4432 5.1165 32.4465 5.11651 32.4498 5.11981C32.4135 5.09008 32.3772 5.06695 32.3408 5.04053C32.3739 5.06365 32.4069 5.09008 32.4399 5.1132Z" fill="white"/>
<path d="M9.19763 36.6208C8.39196 35.9536 7.52637 34.9758 7.10689 33.6412C6.48101 31.6493 6.97705 29.3468 8.57507 26.79C11.8943 21.4914 22.2014 6.973 22.3047 6.82765L22.308 6.82435L22.3113 6.82104C23.5464 4.86214 25.6571 3.69605 27.951 3.69605C28.7067 3.69605 29.4624 3.82488 30.1848 4.06933C30.1016 4.05611 30.0217 4.05611 29.9385 4.04951C30.7941 4.19816 31.6164 4.53841 32.3355 5.04052C31.0072 4.03299 29.4657 3.53418 27.951 3.53418C25.7038 3.53418 23.5131 4.62099 22.1781 6.73516C22.1781 6.73516 11.8011 21.3427 8.44523 26.7074C4.6899 32.7063 7.84597 35.9503 9.74028 37.232C9.54386 37.0371 9.36408 36.8323 9.19763 36.6208Z" fill="white"/>
<path d="M1.84983 26.4534L1.80322 26.4303C1.6534 26.3477 1.51025 26.2519 1.37708 26.1429C1.26056 26.0471 1.14404 25.9315 1.0142 25.7828L1.00088 25.7663C0.980907 25.7465 0.964261 25.7234 0.947615 25.7036C0.837752 25.5714 0.744534 25.436 0.664634 25.3005C0.657975 25.2873 0.651317 25.2741 0.644659 25.2642C0.638 25.251 0.631342 25.2378 0.624683 25.2279C0.551441 25.0957 0.484857 24.9537 0.428261 24.8116C0.421603 24.7984 0.418274 24.7852 0.411615 24.772C0.404957 24.7588 0.401628 24.7456 0.394969 24.7324C0.338373 24.5804 0.291764 24.4152 0.251814 24.2402C0.245156 24.2104 0.238497 24.1807 0.235168 24.151L0.231839 24.1278C0.195218 23.9296 0.171913 23.7612 0.161926 23.6026V23.596C0.151938 23.4341 0.155267 23.2591 0.168584 23.0476V23.0245C0.171913 22.9948 0.171913 22.9618 0.175243 22.932C0.191888 22.7437 0.218522 22.5587 0.255143 22.387C0.258472 22.3704 0.261802 22.3539 0.265131 22.3407C0.26846 22.3275 0.271789 22.311 0.275118 22.2978C0.311739 22.1326 0.361677 21.9641 0.418274 21.799C0.424932 21.7857 0.428261 21.7692 0.43159 21.756C0.43159 21.7494 0.434919 21.7428 0.434919 21.7362C0.438249 21.7296 0.438249 21.7263 0.441578 21.7197C0.444907 21.7098 0.448236 21.7032 0.451565 21.6933C0.461553 21.6668 0.471541 21.6437 0.481528 21.6206L0.498174 21.5776C0.534795 21.4884 0.568087 21.4125 0.59805 21.3398C0.618025 21.2968 0.638 21.2539 0.661305 21.211C0.667963 21.1944 0.67795 21.1779 0.684609 21.1647C0.694596 21.1482 0.701255 21.1284 0.711242 21.1119C0.714572 21.1019 0.72123 21.0953 0.727888 21.0854C0.737876 21.0722 0.744534 21.0557 0.754522 21.0425C0.817777 20.9269 0.88769 20.8079 0.964261 20.6956C0.974249 20.6791 0.984236 20.6659 0.990894 20.6494C0.997553 20.6395 1.00088 20.6296 1.00754 20.6197C1.02086 20.5965 1.0375 20.5767 1.05082 20.5569C1.14071 20.4314 1.23725 20.3091 1.33713 20.1902C1.34379 20.1836 1.34712 20.1803 1.35378 20.1737C1.45365 20.0581 1.56352 19.9458 1.68004 19.8368C1.6867 19.8301 1.69335 19.8235 1.70334 19.8136L1.70667 19.807C1.71666 19.7971 1.72665 19.7905 1.73663 19.7806C1.75328 19.7674 1.7666 19.7575 1.78324 19.7443C1.88645 19.6551 1.98299 19.5758 2.07954 19.5031C2.09286 19.4932 2.10617 19.4833 2.11949 19.4701C2.12615 19.4635 2.13614 19.4569 2.14279 19.4503C2.16277 19.437 2.18275 19.4238 2.20272 19.4106C2.21937 19.4007 2.23601 19.3908 2.25266 19.3776C2.28928 19.3512 2.32923 19.328 2.36918 19.3016C2.43909 19.2587 2.51234 19.2157 2.60222 19.1695L2.64217 19.1463C2.66215 19.1364 2.68212 19.1265 2.69877 19.1166C2.70543 19.1133 2.71542 19.11 2.72207 19.1034L2.72873 19.1001C2.73539 19.0968 2.74205 19.0935 2.74871 19.0935C2.76535 19.0869 2.77867 19.0836 2.79532 19.077C2.92183 19.0175 3.05499 18.968 3.18816 18.9217C3.23144 18.9085 3.27139 18.8953 3.31467 18.8821C3.49778 18.8292 3.65092 18.7962 3.79407 18.7731C3.9339 18.7532 4.07373 18.7433 4.21355 18.74C4.24684 18.74 4.28014 18.7367 4.31343 18.7334C4.38001 18.7235 4.4466 18.7037 4.52317 18.6707C4.54647 18.6608 4.5731 18.6475 4.60307 18.631C4.61638 18.6244 4.6297 18.6145 4.64302 18.6046C4.68963 18.5749 4.72625 18.5451 4.75954 18.5154C4.76287 18.5121 4.7662 18.5088 4.76953 18.5055C4.81281 18.4625 4.84943 18.4229 4.87939 18.3767L10.6722 9.73502C11.0451 9.19656 11.6576 8.86292 12.2735 8.86292C12.4966 8.86292 12.713 8.90587 12.9194 8.99175C13.1025 9.06773 13.2623 9.14701 13.4021 9.22629C13.8183 9.29897 14.1945 9.51699 14.4308 9.88036H14.4342C14.4342 9.88036 14.1345 9.3287 12.9793 8.8398C12.7496 8.744 12.5099 8.69775 12.2735 8.69775C11.5944 8.69775 10.9352 9.07104 10.5457 9.63591L4.75621 18.2842C4.72958 18.3238 4.69961 18.3568 4.66632 18.3899C4.66299 18.3932 4.65966 18.3965 4.65633 18.3998C4.62637 18.4262 4.59308 18.4526 4.56312 18.4725C4.5498 18.4791 4.53648 18.489 4.5265 18.4956C4.50652 18.5055 4.48655 18.5154 4.46657 18.5253C4.4133 18.5484 4.35671 18.5683 4.29678 18.5782C4.27015 18.5815 4.24352 18.5848 4.21688 18.5848C4.0704 18.5881 3.92724 18.598 3.78076 18.6211C3.6143 18.6442 3.44784 18.6872 3.28138 18.7334C3.23477 18.7466 3.19149 18.7599 3.14821 18.7764C3.01171 18.8226 2.87522 18.8755 2.74205 18.9382C2.71874 18.9481 2.69544 18.9548 2.67214 18.9647C2.66215 18.9713 2.65216 18.9779 2.64217 18.9812C2.60888 18.9977 2.57226 19.0175 2.53897 19.0373C2.45907 19.0803 2.37584 19.1265 2.29594 19.1728C2.25599 19.1992 2.21604 19.2256 2.17276 19.2521C2.13614 19.2752 2.09952 19.2983 2.06289 19.3247C2.03959 19.3412 2.01961 19.3611 1.99631 19.3776C1.88978 19.4536 1.7899 19.5394 1.69002 19.6253C1.66339 19.6485 1.63676 19.665 1.61012 19.6881C1.60014 19.698 1.59348 19.7079 1.58349 19.7178C1.46697 19.8268 1.35378 19.9425 1.24724 20.0647C1.24391 20.0713 1.23725 20.0746 1.2306 20.0812C1.2306 20.0812 1.2306 20.0812 1.2306 20.0845C1.12739 20.2034 1.02752 20.329 0.934298 20.4611C0.917652 20.4842 0.904336 20.504 0.88769 20.5272C0.871044 20.5536 0.857727 20.58 0.841081 20.6064C0.764509 20.7254 0.691267 20.8443 0.624683 20.9665C0.611367 20.9896 0.594721 21.0128 0.581404 21.0392C0.564758 21.0722 0.548112 21.1086 0.531466 21.1449C0.508162 21.1878 0.488187 21.2341 0.468211 21.277C0.43159 21.3596 0.394969 21.4389 0.365006 21.5215C0.348361 21.5611 0.331715 21.6008 0.318398 21.6404C0.311739 21.6536 0.305081 21.6701 0.301752 21.6833C0.295093 21.7032 0.291764 21.7263 0.281777 21.7494C0.221851 21.9212 0.175243 22.0897 0.135292 22.2647C0.128634 22.2978 0.118646 22.3275 0.111988 22.3605C0.0720376 22.5488 0.0454041 22.7371 0.0287581 22.9254C0.0254289 22.9651 0.0220997 23.008 0.0187705 23.0476C-0.00120463 23.226 -0.00453383 23.4176 0.00545375 23.6059C0.0154413 23.7942 0.045404 23.9792 0.078696 24.1576C0.0853544 24.1972 0.0920127 24.2336 0.102 24.2732C0.141951 24.4483 0.188559 24.62 0.248485 24.7852C0.258472 24.8116 0.271789 24.8381 0.281777 24.8645C0.341702 25.0131 0.408286 25.1585 0.484857 25.3005C0.498174 25.327 0.511491 25.3534 0.528137 25.3798C0.614696 25.5285 0.714572 25.6705 0.824435 25.806C0.847739 25.8357 0.874373 25.8621 0.897677 25.8918C1.0142 26.0273 1.14071 26.1561 1.28053 26.2684C1.42369 26.3841 1.57683 26.4865 1.7333 26.5756L2.30593 26.8531C2.14945 26.7408 1.99631 26.6087 1.84983 26.4534Z" fill="white"/>
<path d="M3.22021 27.3086C3.24664 27.3185 3.27637 27.3284 3.3028 27.3383L3.25986 27.3152C3.24334 27.3119 3.23343 27.3119 3.22021 27.3086Z" fill="white"/>
<path d="M42.9658 8.76416C42.9691 8.76746 42.9724 8.76746 42.979 8.77077L42.9757 8.76746C42.9691 8.76746 42.9658 8.76746 42.9658 8.76416Z" fill="white"/>
<path d="M41.3809 7.67045C40.7184 7.15182 40.239 6.5473 39.9926 5.87011C39.643 4.90882 39.7329 3.82532 40.2623 2.65262C40.3022 2.56673 40.4221 2.33219 40.442 2.30246C41.3442 0.862182 42.383 0.161866 43.6148 0.161866C44.1341 0.161866 44.6967 0.300608 45.2927 0.558271C45.6822 0.624339 46.0517 0.759778 46.388 0.964587C45.4358 0.356765 44.5036 0 43.6148 0C42.4162 0 41.301 0.644159 40.3255 2.18684C40.2989 2.22648 40.1757 2.45772 40.1424 2.53039C38.9739 5.0773 39.8761 7.06263 42.0201 8.3014C41.7804 8.12301 41.5673 7.9116 41.3809 7.67045Z" fill="white"/>
<path d="M52.1259 13.5208C52.0493 13.4779 51.9761 13.4283 51.9028 13.3722L45.8703 8.5922C45.7738 8.51622 45.6539 8.49309 45.5341 8.4964L45.8271 8.65826L51.0872 12.8271L50.3914 12.4406L45.4342 8.51291C45.4043 8.52613 45.3776 8.53604 45.3477 8.54595L50.3481 12.5067C50.418 12.5629 50.4913 12.6124 50.5712 12.6554L52.1259 13.5208Z" fill="white"/>
</svg>
